<svg xmlns="http://www.w3.org/2000/svg" width="24.65in" height="13.65in" viewBox="0 0 24.6500 13.6500">
<g transform="translate(0,13.6500) scale(1,-1)">
<path d="M 0.6306,2.2200 L 1.0767,2.2200 L 1.6404,1.1570 L 1.6404,2.2200 L 2.0194,2.2200 L 2.0194,0.6700 L 1.5730,0.6700 L 1.0093,1.7330 L 1.0093,0.6700 L 0.6306,0.6700 L 0.6306,2.2200 Z M 2.1843,0.2677 L 2.2708,0.2677 L 2.2708,0.5133 L 2.1820,0.4950 L 2.1820,0.5617 L 2.2703,0.5800 L 2.3634,0.5800 L 2.3634,0.2677 L 2.4500,0.2677 L 2.4500,0.2000 L 2.1843,0.2000 L 2.1843,0.2677 Z M 3.3806,2.2200 L 3.8267,2.2200 L 4.3904,1.1570 L 4.3904,2.2200 L 4.7694,2.2200 L 4.7694,0.6700 L 4.3230,0.6700 L 3.7593,1.7330 L 3.7593,0.6700 L 3.3806,0.6700 L 3.3806,2.2200 Z M 4.9343,0.2677 L 5.0208,0.2677 L 5.0208,0.5133 L 4.9320,0.4950 L 4.9320,0.5617 L 5.0203,0.5800 L 5.1134,0.5800 L 5.1134,0.2677 L 5.2000,0.2677 L 5.2000,0.2000 L 4.9343,0.2000 L 4.9343,0.2677 Z M 6.1306,2.2200 L 6.5767,2.2200 L 7.1404,1.1570 L 7.1404,2.2200 L 7.5194,2.2200 L 7.5194,0.6700 L 7.0730,0.6700 L 6.5093,1.7330 L 6.5093,0.6700 L 6.1306,0.6700 L 6.1306,2.2200 Z M 7.6843,0.2677 L 7.7708,0.2677 L 7.7708,0.5133 L 7.6820,0.4950 L 7.6820,0.5617 L 7.7703,0.5800 L 7.8634,0.5800 L 7.8634,0.2677 L 7.9500,0.2677 L 7.9500,0.2000 L 7.6843,0.2000 L 7.6843,0.2677 Z M 8.8806,2.2200 L 9.3267,2.2200 L 9.8904,1.1570 L 9.8904,2.2200 L 10.2694,2.2200 L 10.2694,0.6700 L 9.8230,0.6700 L 9.2593,1.7330 L 9.2593,0.6700 L 8.8806,0.6700 L 8.8806,2.2200 Z M 10.4343,0.2677 L 10.5208,0.2677 L 10.5208,0.5133 L 10.4320,0.4950 L 10.4320,0.5617 L 10.5203,0.5800 L 10.6134,0.5800 L 10.6134,0.2677 L 10.7000,0.2677 L 10.7000,0.2000 L 10.4343,0.2000 L 10.4343,0.2677 Z M 12.3250,1.9582 L 12.2806,1.9561 L 12.1995,1.9393 L 12.1287,1.9056 L 12.0681,1.8550 L 12.0416,1.8234 L 12.0181,1.7879 L 11.9803,1.7067 L 11.9551,1.6117 L 11.9426,1.5029 L 11.9410,1.4433 L 11.9426,1.3841 L 11.9551,1.2757 L 11.9803,1.1810 L 12.0181,1.0998 L 12.0416,1.0643 L 12.0681,1.0327 L 12.1287,0.9821 L 12.1995,0.9484 L 12.2806,0.9315 L 12.3250,0.9294 L 12.3696,0.9315 L 12.4511,0.9484 L 12.5222,0.9821 L 12.5829,1.0327 L 12.6094,1.0643 L 12.6329,1.0998 L 12.6707,1.1810 L 12.6959,1.2757 L 12.7084,1.3841 L 12.7100,1.4433 L 12.7084,1.5029 L 12.6959,1.6117 L 12.6707,1.7067 L 12.6329,1.7879 L 12.6094,1.8234 L 12.5829,1.8550 L 12.5222,1.9056 L 12.4511,1.9393 L 12.3696,1.9561 L 12.3250,1.9582 Z M 12.3250,2.2479 L 12.4159,2.2446 L 12.5825,2.2178 L 12.7288,2.1643 L 12.8549,2.0841 L 12.9103,2.0340 L 12.9600,1.9780 L 13.0395,1.8508 L 13.0925,1.7031 L 13.1189,1.5350 L 13.1223,1.4433 L 13.1189,1.3519 L 13.0925,1.1843 L 13.0395,1.0369 L 12.9600,0.9097 L 12.9103,0.8537 L 12.8549,0.8036 L 12.7288,0.7233 L 12.5825,0.6699 L 12.4159,0.6431 L 12.3250,0.6398 L 12.2343,0.6431 L 12.0680,0.6699 L 11.9218,0.7233 L 11.7956,0.8036 L 11.7400,0.8537 L 11.6903,0.9097 L 11.6107,1.0369 L 11.5576,1.1843 L 11.5311,1.3519 L 11.5277,1.4433 L 11.5311,1.5350 L 11.5576,1.7031 L 11.6107,1.8508 L 11.6903,1.9780 L 11.7400,2.0340 L 11.7956,2.0841 L 11.9218,2.1643 L 12.0680,2.2178 L 12.2343,2.2446 L 12.3250,2.2479 Z M 13.1843,0.2677 L 13.2708,0.2677 L 13.2708,0.5133 L 13.1820,0.4950 L 13.1820,0.5617 L 13.2703,0.5800 L 13.3634,0.5800 L 13.3634,0.2677 L 13.4500,0.2677 L 13.4500,0.2000 L 13.1843,0.2000 L 13.1843,0.2677 Z M 15.0750,1.9582 L 15.0306,1.9561 L 14.9495,1.9393 L 14.8787,1.9056 L 14.8181,1.8550 L 14.7916,1.8234 L 14.7681,1.7879 L 14.7303,1.7067 L 14.7051,1.6117 L 14.6926,1.5029 L 14.6910,1.4433 L 14.6926,1.3841 L 14.7051,1.2757 L 14.7303,1.1810 L 14.7681,1.0998 L 14.7916,1.0643 L 14.8181,1.0327 L 14.8787,0.9821 L 14.9495,0.9484 L 15.0306,0.9315 L 15.0750,0.9294 L 15.1196,0.9315 L 15.2011,0.9484 L 15.2722,0.9821 L 15.3329,1.0327 L 15.3594,1.0643 L 15.3829,1.0998 L 15.4207,1.1810 L 15.4459,1.2757 L 15.4584,1.3841 L 15.4600,1.4433 L 15.4584,1.5029 L 15.4459,1.6117 L 15.4207,1.7067 L 15.3829,1.7879 L 15.3594,1.8234 L 15.3329,1.8550 L 15.2722,1.9056 L 15.2011,1.9393 L 15.1196,1.9561 L 15.0750,1.9582 Z M 15.0750,2.2479 L 15.1659,2.2446 L 15.3325,2.2178 L 15.4788,2.1643 L 15.6049,2.0841 L 15.6603,2.0340 L 15.7100,1.9780 L 15.7895,1.8508 L 15.8425,1.7031 L 15.8689,1.5350 L 15.8723,1.4433 L 15.8689,1.3519 L 15.8425,1.1843 L 15.7895,1.0369 L 15.7100,0.9097 L 15.6603,0.8537 L 15.6049,0.8036 L 15.4788,0.7233 L 15.3325,0.6699 L 15.1659,0.6431 L 15.0750,0.6398 L 14.9843,0.6431 L 14.8180,0.6699 L 14.6718,0.7233 L 14.5456,0.8036 L 14.4900,0.8537 L 14.4403,0.9097 L 14.3607,1.0369 L 14.3076,1.1843 L 14.2811,1.3519 L 14.2777,1.4433 L 14.2811,1.5350 L 14.3076,1.7031 L 14.3607,1.8508 L 14.4403,1.9780 L 14.4900,2.0340 L 14.5456,2.0841 L 14.6718,2.1643 L 14.8180,2.2178 L 14.9843,2.2446 L 15.0750,2.2479 Z M 15.9343,0.2677 L 16.0208,0.2677 L 16.0208,0.5133 L 15.9320,0.4950 L 15.9320,0.5617 L 16.0203,0.5800 L 16.1134,0.5800 L 16.1134,0.2677 L 16.2000,0.2677 L 16.2000,0.2000 L 15.9343,0.2000 L 15.9343,0.2677 Z M 17.8250,1.9582 L 17.7806,1.9561 L 17.6995,1.9393 L 17.6287,1.9056 L 17.5681,1.8550 L 17.5416,1.8234 L 17.5181,1.7879 L 17.4803,1.7067 L 17.4551,1.6117 L 17.4426,1.5029 L 17.4410,1.4433 L 17.4426,1.3841 L 17.4551,1.2757 L 17.4803,1.1810 L 17.5181,1.0998 L 17.5416,1.0643 L 17.5681,1.0327 L 17.6287,0.9821 L 17.6995,0.9484 L 17.7806,0.9315 L 17.8250,0.9294 L 17.8696,0.9315 L 17.9511,0.9484 L 18.0222,0.9821 L 18.0829,1.0327 L 18.1094,1.0643 L 18.1329,1.0998 L 18.1707,1.1810 L 18.1959,1.2757 L 18.2084,1.3841 L 18.2100,1.4433 L 18.2084,1.5029 L 18.1959,1.6117 L 18.1707,1.7067 L 18.1329,1.7879 L 18.1094,1.8234 L 18.0829,1.8550 L 18.0222,1.9056 L 17.9511,1.9393 L 17.8696,1.9561 L 17.8250,1.9582 Z M 17.8250,2.2479 L 17.9159,2.2446 L 18.0825,2.2178 L 18.2288,2.1643 L 18.3549,2.0841 L 18.4103,2.0340 L 18.4600,1.9780 L 18.5395,1.8508 L 18.5925,1.7031 L 18.6189,1.5350 L 18.6223,1.4433 L 18.6189,1.3519 L 18.5925,1.1843 L 18.5395,1.0369 L 18.4600,0.9097 L 18.4103,0.8537 L 18.3549,0.8036 L 18.2288,0.7233 L 18.0825,0.6699 L 17.9159,0.6431 L 17.8250,0.6398 L 17.7343,0.6431 L 17.5680,0.6699 L 17.4218,0.7233 L 17.2956,0.8036 L 17.2400,0.8537 L 17.1903,0.9097 L 17.1107,1.0369 L 17.0576,1.1843 L 17.0311,1.3519 L 17.0277,1.4433 L 17.0311,1.5350 L 17.0576,1.7031 L 17.1107,1.8508 L 17.1903,1.9780 L 17.2400,2.0340 L 17.2956,2.0841 L 17.4218,2.1643 L 17.5680,2.2178 L 17.7343,2.2446 L 17.8250,2.2479 Z M 18.6843,0.2677 L 18.7708,0.2677 L 18.7708,0.5133 L 18.6820,0.4950 L 18.6820,0.5617 L 18.7703,0.5800 L 18.8634,0.5800 L 18.8634,0.2677 L 18.9500,0.2677 L 18.9500,0.2000 L 18.6843,0.2000 L 18.6843,0.2677 Z M 20.5750,1.9582 L 20.5306,1.9561 L 20.4495,1.9393 L 20.3787,1.9056 L 20.3181,1.8550 L 20.2916,1.8234 L 20.2681,1.7879 L 20.2303,1.7067 L 20.2051,1.6117 L 20.1926,1.5029 L 20.1910,1.4433 L 20.1926,1.3841 L 20.2051,1.2757 L 20.2303,1.1810 L 20.2681,1.0998 L 20.2916,1.0643 L 20.3181,1.0327 L 20.3787,0.9821 L 20.4495,0.9484 L 20.5306,0.9315 L 20.5750,0.9294 L 20.6196,0.9315 L 20.7011,0.9484 L 20.7722,0.9821 L 20.8329,1.0327 L 20.8594,1.0643 L 20.8829,1.0998 L 20.9207,1.1810 L 20.9459,1.2757 L 20.9584,1.3841 L 20.9600,1.4433 L 20.9584,1.5029 L 20.9459,1.6117 L 20.9207,1.7067 L 20.8829,1.7879 L 20.8594,1.8234 L 20.8329,1.8550 L 20.7722,1.9056 L 20.7011,1.9393 L 20.6196,1.9561 L 20.5750,1.9582 Z M 20.5750,2.2479 L 20.6659,2.2446 L 20.8325,2.2178 L 20.9788,2.1643 L 21.1049,2.0841 L 21.1603,2.0340 L 21.2100,1.9780 L 21.2895,1.8508 L 21.3425,1.7031 L 21.3689,1.5350 L 21.3723,1.4433 L 21.3689,1.3519 L 21.3425,1.1843 L 21.2895,1.0369 L 21.2100,0.9097 L 21.1603,0.8537 L 21.1049,0.8036 L 20.9788,0.7233 L 20.8325,0.6699 L 20.6659,0.6431 L 20.5750,0.6398 L 20.4843,0.6431 L 20.3180,0.6699 L 20.1718,0.7233 L 20.0456,0.8036 L 19.9900,0.8537 L 19.9403,0.9097 L 19.8607,1.0369 L 19.8076,1.1843 L 19.7811,1.3519 L 19.7777,1.4433 L 19.7811,1.5350 L 19.8076,1.7031 L 19.8607,1.8508 L 19.9403,1.9780 L 19.9900,2.0340 L 20.0456,2.0841 L 20.1718,2.1643 L 20.3180,2.2178 L 20.4843,2.2446 L 20.5750,2.2479 Z M 21.4343,0.2677 L 21.5208,0.2677 L 21.5208,0.5133 L 21.4320,0.4950 L 21.4320,0.5617 L 21.5203,0.5800 L 21.6134,0.5800 L 21.6134,0.2677 L 21.7000,0.2677 L 21.7000,0.2000 L 21.4343,0.2000 L 21.4343,0.2677 Z M 23.3250,1.9582 L 23.2806,1.9561 L 23.1995,1.9393 L 23.1287,1.9056 L 23.0681,1.8550 L 23.0416,1.8234 L 23.0181,1.7879 L 22.9803,1.7067 L 22.9551,1.6117 L 22.9426,1.5029 L 22.9410,1.4433 L 22.9426,1.3841 L 22.9551,1.2757 L 22.9803,1.1810 L 23.0181,1.0998 L 23.0416,1.0643 L 23.0681,1.0327 L 23.1287,0.9821 L 23.1995,0.9484 L 23.2806,0.9315 L 23.3250,0.9294 L 23.3696,0.9315 L 23.4511,0.9484 L 23.5222,0.9821 L 23.5829,1.0327 L 23.6094,1.0643 L 23.6329,1.0998 L 23.6707,1.1810 L 23.6959,1.2757 L 23.7084,1.3841 L 23.7100,1.4433 L 23.7084,1.5029 L 23.6959,1.6117 L 23.6707,1.7067 L 23.6329,1.7879 L 23.6094,1.8234 L 23.5829,1.8550 L 23.5222,1.9056 L 23.4511,1.9393 L 23.3696,1.9561 L 23.3250,1.9582 Z M 23.3250,2.2479 L 23.4159,2.2446 L 23.5825,2.2178 L 23.7288,2.1643 L 23.8549,2.0841 L 23.9103,2.0340 L 23.9600,1.9780 L 24.0395,1.8508 L 24.0925,1.7031 L 24.1189,1.5350 L 24.1223,1.4433 L 24.1189,1.3519 L 24.0925,1.1843 L 24.0395,1.0369 L 23.9600,0.9097 L 23.9103,0.8537 L 23.8549,0.8036 L 23.7288,0.7233 L 23.5825,0.6699 L 23.4159,0.6431 L 23.3250,0.6398 L 23.2343,0.6431 L 23.0680,0.6699 L 22.9218,0.7233 L 22.7956,0.8036 L 22.7400,0.8537 L 22.6903,0.9097 L 22.6107,1.0369 L 22.5576,1.1843 L 22.5311,1.3519 L 22.5277,1.4433 L 22.5311,1.5350 L 22.5576,1.7031 L 22.6107,1.8508 L 22.6903,1.9780 L 22.7400,2.0340 L 22.7956,2.0841 L 22.9218,2.1643 L 23.0680,2.2178 L 23.2343,2.2446 L 23.3250,2.2479 Z M 24.1843,0.2677 L 24.2708,0.2677 L 24.2708,0.5133 L 24.1820,0.4950 L 24.1820,0.5617 L 24.2703,0.5800 L 24.3634,0.5800 L 24.3634,0.2677 L 24.4500,0.2677 L 24.4500,0.2000 L 24.1843,0.2000 L 24.1843,0.2677 Z M 1.3250,4.7082 L 1.2806,4.7061 L 1.1995,4.6893 L 1.1287,4.6556 L 1.0681,4.6050 L 1.0416,4.5734 L 1.0181,4.5379 L 0.9803,4.4567 L 0.9551,4.3617 L 0.9426,4.2529 L 0.9410,4.1933 L 0.9426,4.1341 L 0.9551,4.0257 L 0.9803,3.9310 L 1.0181,3.8498 L 1.0416,3.8143 L 1.0681,3.7827 L 1.1287,3.7321 L 1.1995,3.6984 L 1.2806,3.6815 L 1.3250,3.6794 L 1.3696,3.6815 L 1.4511,3.6984 L 1.5222,3.7321 L 1.5829,3.7827 L 1.6094,3.8143 L 1.6329,3.8498 L 1.6707,3.9310 L 1.6959,4.0257 L 1.7084,4.1341 L 1.7100,4.1933 L 1.7084,4.2529 L 1.6959,4.3617 L 1.6707,4.4567 L 1.6329,4.5379 L 1.6094,4.5734 L 1.5829,4.6050 L 1.5222,4.6556 L 1.4511,4.6893 L 1.3696,4.7061 L 1.3250,4.7082 Z M 1.3250,4.9979 L 1.4159,4.9946 L 1.5825,4.9678 L 1.7288,4.9143 L 1.8549,4.8341 L 1.9103,4.7840 L 1.9600,4.7280 L 2.0395,4.6008 L 2.0925,4.4531 L 2.1189,4.2850 L 2.1223,4.1933 L 2.1189,4.1019 L 2.0925,3.9343 L 2.0395,3.7869 L 1.9600,3.6597 L 1.9103,3.6037 L 1.8549,3.5536 L 1.7288,3.4733 L 1.5825,3.4199 L 1.4159,3.3931 L 1.3250,3.3898 L 1.2343,3.3931 L 1.0680,3.4199 L 0.9218,3.4733 L 0.7956,3.5536 L 0.7400,3.6037 L 0.6903,3.6597 L 0.6107,3.7869 L 0.5576,3.9343 L 0.5311,4.1019 L 0.5277,4.1933 L 0.5311,4.2850 L 0.5576,4.4531 L 0.6107,4.6008 L 0.6903,4.7280 L 0.7400,4.7840 L 0.7956,4.8341 L 0.9218,4.9143 L 1.0680,4.9678 L 1.2343,4.9946 L 1.3250,4.9979 Z M 2.1843,3.0177 L 2.2708,3.0177 L 2.2708,3.2633 L 2.1820,3.2450 L 2.1820,3.3117 L 2.2703,3.3300 L 2.3634,3.3300 L 2.3634,3.0177 L 2.4500,3.0177 L 2.4500,2.9500 L 2.1843,2.9500 L 2.1843,3.0177 Z M 4.0750,4.7082 L 4.0306,4.7061 L 3.9495,4.6893 L 3.8787,4.6556 L 3.8181,4.6050 L 3.7916,4.5734 L 3.7681,4.5379 L 3.7303,4.4567 L 3.7051,4.3617 L 3.6926,4.2529 L 3.6910,4.1933 L 3.6926,4.1341 L 3.7051,4.0257 L 3.7303,3.9310 L 3.7681,3.8498 L 3.7916,3.8143 L 3.8181,3.7827 L 3.8787,3.7321 L 3.9495,3.6984 L 4.0306,3.6815 L 4.0750,3.6794 L 4.1196,3.6815 L 4.2011,3.6984 L 4.2722,3.7321 L 4.3329,3.7827 L 4.3594,3.8143 L 4.3829,3.8498 L 4.4207,3.9310 L 4.4459,4.0257 L 4.4584,4.1341 L 4.4600,4.1933 L 4.4584,4.2529 L 4.4459,4.3617 L 4.4207,4.4567 L 4.3829,4.5379 L 4.3594,4.5734 L 4.3329,4.6050 L 4.2722,4.6556 L 4.2011,4.6893 L 4.1196,4.7061 L 4.0750,4.7082 Z M 4.0750,4.9979 L 4.1659,4.9946 L 4.3325,4.9678 L 4.4788,4.9143 L 4.6049,4.8341 L 4.6603,4.7840 L 4.7100,4.7280 L 4.7895,4.6008 L 4.8425,4.4531 L 4.8689,4.2850 L 4.8723,4.1933 L 4.8689,4.1019 L 4.8425,3.9343 L 4.7895,3.7869 L 4.7100,3.6597 L 4.6603,3.6037 L 4.6049,3.5536 L 4.4788,3.4733 L 4.3325,3.4199 L 4.1659,3.3931 L 4.0750,3.3898 L 3.9843,3.3931 L 3.8180,3.4199 L 3.6718,3.4733 L 3.5456,3.5536 L 3.4900,3.6037 L 3.4403,3.6597 L 3.3607,3.7869 L 3.3076,3.9343 L 3.2811,4.1019 L 3.2777,4.1933 L 3.2811,4.2850 L 3.3076,4.4531 L 3.3607,4.6008 L 3.4403,4.7280 L 3.4900,4.7840 L 3.5456,4.8341 L 3.6718,4.9143 L 3.8180,4.9678 L 3.9843,4.9946 L 4.0750,4.9979 Z M 4.9343,3.0177 L 5.0208,3.0177 L 5.0208,3.2633 L 4.9320,3.2450 L 4.9320,3.3117 L 5.0203,3.3300 L 5.1134,3.3300 L 5.1134,3.0177 L 5.2000,3.0177 L 5.2000,2.9500 L 4.9343,2.9500 L 4.9343,3.0177 Z M 6.8250,4.7082 L 6.7806,4.7061 L 6.6995,4.6893 L 6.6287,4.6556 L 6.5681,4.6050 L 6.5416,4.5734 L 6.5181,4.5379 L 6.4803,4.4567 L 6.4551,4.3617 L 6.4426,4.2529 L 6.4410,4.1933 L 6.4426,4.1341 L 6.4551,4.0257 L 6.4803,3.9310 L 6.5181,3.8498 L 6.5416,3.8143 L 6.5681,3.7827 L 6.6287,3.7321 L 6.6995,3.6984 L 6.7806,3.6815 L 6.8250,3.6794 L 6.8696,3.6815 L 6.9511,3.6984 L 7.0222,3.7321 L 7.0829,3.7827 L 7.1094,3.8143 L 7.1329,3.8498 L 7.1707,3.9310 L 7.1959,4.0257 L 7.2084,4.1341 L 7.2100,4.1933 L 7.2084,4.2529 L 7.1959,4.3617 L 7.1707,4.4567 L 7.1329,4.5379 L 7.1094,4.5734 L 7.0829,4.6050 L 7.0222,4.6556 L 6.9511,4.6893 L 6.8696,4.7061 L 6.8250,4.7082 Z M 6.8250,4.9979 L 6.9159,4.9946 L 7.0825,4.9678 L 7.2288,4.9143 L 7.3549,4.8341 L 7.4103,4.7840 L 7.4600,4.7280 L 7.5395,4.6008 L 7.5925,4.4531 L 7.6189,4.2850 L 7.6223,4.1933 L 7.6189,4.1019 L 7.5925,3.9343 L 7.5395,3.7869 L 7.4600,3.6597 L 7.4103,3.6037 L 7.3549,3.5536 L 7.2288,3.4733 L 7.0825,3.4199 L 6.9159,3.3931 L 6.8250,3.3898 L 6.7343,3.3931 L 6.5680,3.4199 L 6.4218,3.4733 L 6.2956,3.5536 L 6.2400,3.6037 L 6.1903,3.6597 L 6.1107,3.7869 L 6.0576,3.9343 L 6.0311,4.1019 L 6.0277,4.1933 L 6.0311,4.2850 L 6.0576,4.4531 L 6.1107,4.6008 L 6.1903,4.7280 L 6.2400,4.7840 L 6.2956,4.8341 L 6.4218,4.9143 L 6.5680,4.9678 L 6.7343,4.9946 L 6.8250,4.9979 Z M 7.6843,3.0177 L 7.7708,3.0177 L 7.7708,3.2633 L 7.6820,3.2450 L 7.6820,3.3117 L 7.7703,3.3300 L 7.8634,3.3300 L 7.8634,3.0177 L 7.9500,3.0177 L 7.9500,2.9500 L 7.6843,2.9500 L 7.6843,3.0177 Z M 8.9372,4.9700 L 9.6002,4.9700 L 9.6721,4.9679 L 9.8028,4.9515 L 9.9164,4.9186 L 10.0127,4.8693 L 10.0544,4.8385 L 10.0915,4.8039 L 10.1509,4.7243 L 10.1905,4.6308 L 10.2103,4.5234 L 10.2128,4.4644 L 10.2103,4.4051 L 10.1905,4.2972 L 10.1509,4.2033 L 10.0915,4.1236 L 10.0544,4.0890 L 10.0127,4.0583 L 9.9164,4.0091 L 9.8028,3.9763 L 9.6721,3.9599 L 9.6002,3.9578 L 9.3368,3.9578 L 9.3368,3.4200 L 8.9372,3.4200 L 8.9372,4.9700 Z M 9.3368,4.6803 L 9.3368,4.2475 L 9.5577,4.2475 L 9.6126,4.2510 L 9.7024,4.2793 L 9.7374,4.3040 L 9.7652,4.3352 L 9.7969,4.4154 L 9.8009,4.4644 L 9.7969,4.5133 L 9.7652,4.5932 L 9.7374,4.6242 L 9.7024,4.6488 L 9.6126,4.6768 L 9.5577,4.6803 L 9.3368,4.6803 Z M 10.6244,3.1546 L 10.6418,3.1490 L 10.6638,3.1371 L 10.6756,3.1271 L 10.6807,3.1214 L 10.6852,3.1152 L 10.6925,3.1018 L 10.6973,3.0868 L 10.6997,3.0701 L 10.7000,3.0612 L 10.6993,3.0479 L 10.6941,3.0240 L 10.6837,3.0033 L 10.6680,2.9858 L 10.6582,2.9783 L 10.6472,2.9717 L 10.6216,2.9611 L 10.5912,2.9540 L 10.5560,2.9504 L 10.5366,2.9500 L 10.5084,2.9511 L 10.4801,2.9546 L 10.4519,2.9602 L 10.4240,2.9682 L 10.4240,3.0411 L 10.4372,3.0348 L 10.4635,3.0248 L 10.4766,3.0210 L 10.4896,3.0181 L 10.5153,3.0147 L 10.5280,3.0143 L 10.5457,3.0151 L 10.5745,3.0216 L 10.5856,3.0272 L 10.5902,3.0307 L 10.5978,3.0386 L 10.6028,3.0479 L 10.6053,3.0587 L 10.6056,3.0646 L 10.6052,3.0707 L 10.6027,3.0817 L 10.5976,3.0912 L 10.5899,3.0991 L 10.5851,3.1025 L 10.5736,3.1082 L 10.5434,3.1146 L 10.5246,3.1154 L 10.4868,3.1154 L 10.4868,3.1762 L 10.5265,3.1762 L 10.5432,3.1769 L 10.5697,3.1825 L 10.5795,3.1874 L 10.5836,3.1903 L 10.5901,3.1974 L 10.5958,3.2107 L 10.5969,3.2214 L 10.5959,3.2313 L 10.5874,3.2476 L 10.5800,3.2539 L 10.5707,3.2590 L 10.5468,3.2648 L 10.5322,3.2655 L 10.5208,3.2652 L 10.4977,3.2626 L 10.4861,3.2603 L 10.4628,3.2540 L 10.4397,3.2451 L 10.4397,3.3143 L 10.4675,3.3212 L 10.4951,3.3261 L 10.5224,3.3290 L 10.5491,3.3300 L 10.5664,3.3296 L 10.5976,3.3267 L 10.6243,3.3208 L 10.6465,3.3120 L 10.6559,3.3065 L 10.6642,3.3003 L 10.6775,3.2857 L 10.6864,3.2680 L 10.6908,3.2474 L 10.6914,3.2360 L 10.6903,3.2207 L 10.6847,3.2004 L 10.6784,3.1888 L 10.6744,3.1834 L 10.6650,3.1740 L 10.6400,3.1596 L 10.6244,3.1546 Z M 11.6872,4.9700 L 12.3502,4.9700 L 12.4221,4.9679 L 12.5528,4.9515 L 12.6664,4.9186 L 12.7627,4.8693 L 12.8044,4.8385 L 12.8415,4.8039 L 12.9009,4.7243 L 12.9405,4.6308 L 12.9603,4.5234 L 12.9628,4.4644 L 12.9603,4.4051 L 12.9405,4.2972 L 12.9009,4.2033 L 12.8415,4.1236 L 12.8044,4.0890 L 12.7627,4.0583 L 12.6664,4.0091 L 12.5528,3.9763 L 12.4221,3.9599 L 12.3502,3.9578 L 12.0868,3.9578 L 12.0868,3.4200 L 11.6872,3.4200 L 11.6872,4.9700 Z M 12.0868,4.6803 L 12.0868,4.2475 L 12.3077,4.2475 L 12.3626,4.2510 L 12.4524,4.2793 L 12.4874,4.3040 L 12.5152,4.3352 L 12.5469,4.4154 L 12.5509,4.4644 L 12.5469,4.5133 L 12.5152,4.5932 L 12.4874,4.6242 L 12.4524,4.6488 L 12.3626,4.6768 L 12.3077,4.6803 L 12.0868,4.6803 Z M 13.3744,3.1546 L 13.3918,3.1490 L 13.4138,3.1371 L 13.4256,3.1271 L 13.4307,3.1214 L 13.4352,3.1152 L 13.4425,3.1018 L 13.4473,3.0868 L 13.4497,3.0701 L 13.4500,3.0612 L 13.4493,3.0479 L 13.4441,3.0240 L 13.4337,3.0033 L 13.4180,2.9858 L 13.4082,2.9783 L 13.3972,2.9717 L 13.3716,2.9611 L 13.3412,2.9540 L 13.3060,2.9504 L 13.2866,2.9500 L 13.2584,2.9511 L 13.2301,2.9546 L 13.2019,2.9602 L 13.1740,2.9682 L 13.1740,3.0411 L 13.1872,3.0348 L 13.2135,3.0248 L 13.2266,3.0210 L 13.2396,3.0181 L 13.2653,3.0147 L 13.2780,3.0143 L 13.2957,3.0151 L 13.3245,3.0216 L 13.3356,3.0272 L 13.3402,3.0307 L 13.3478,3.0386 L 13.3528,3.0479 L 13.3553,3.0587 L 13.3556,3.0646 L 13.3552,3.0707 L 13.3527,3.0817 L 13.3476,3.0912 L 13.3399,3.0991 L 13.3351,3.1025 L 13.3236,3.1082 L 13.2934,3.1146 L 13.2746,3.1154 L 13.2368,3.1154 L 13.2368,3.1762 L 13.2765,3.1762 L 13.2932,3.1769 L 13.3197,3.1825 L 13.3295,3.1874 L 13.3336,3.1903 L 13.3401,3.1974 L 13.3458,3.2107 L 13.3469,3.2214 L 13.3459,3.2313 L 13.3374,3.2476 L 13.3300,3.2539 L 13.3207,3.2590 L 13.2968,3.2648 L 13.2822,3.2655 L 13.2708,3.2652 L 13.2477,3.2626 L 13.2361,3.2603 L 13.2128,3.2540 L 13.1897,3.2451 L 13.1897,3.3143 L 13.2175,3.3212 L 13.2451,3.3261 L 13.2724,3.3290 L 13.2991,3.3300 L 13.3164,3.3296 L 13.3476,3.3267 L 13.3743,3.3208 L 13.3965,3.3120 L 13.4059,3.3065 L 13.4142,3.3003 L 13.4275,3.2857 L 13.4364,3.2680 L 13.4408,3.2474 L 13.4414,3.2360 L 13.4403,3.2207 L 13.4347,3.2004 L 13.4284,3.1888 L 13.4244,3.1834 L 13.4150,3.1740 L 13.3900,3.1596 L 13.3744,3.1546 Z M 14.9375,3.3921 L 14.9063,3.3921 L 14.8132,3.3954 L 14.6430,3.4219 L 14.4940,3.4748 L 14.3662,3.5541 L 14.3103,3.6037 L 14.2605,3.6593 L 14.1808,3.7860 L 14.1276,3.9334 L 14.1011,4.1015 L 14.0977,4.1933 L 14.1011,4.2850 L 14.1276,4.4531 L 14.1807,4.6008 L 14.2603,4.7280 L 14.3100,4.7840 L 14.3656,4.8341 L 14.4918,4.9143 L 14.6380,4.9678 L 14.8043,4.9946 L 14.8950,4.9979 L 14.9866,4.9946 L 15.1541,4.9681 L 15.3009,4.9151 L 15.4268,4.8356 L 15.4820,4.7860 L 15.5313,4.7304 L 15.6101,4.6034 L 15.6627,4.4553 L 15.6890,4.2859 L 15.6923,4.1933 L 15.6905,4.1291 L 15.6766,4.0074 L 15.6487,3.8948 L 15.6068,3.7913 L 15.5806,3.7429 L 15.5512,3.6971 L 15.4831,3.6143 L 15.4028,3.5432 L 15.3103,3.4838 L 15.2594,3.4585 L 15.5717,3.1097 L 15.1906,3.1097 L 14.9375,3.3921 Z M 14.8950,4.7082 L 14.8506,4.7061 L 14.7695,4.6893 L 14.6987,4.6556 L 14.6381,4.6050 L 14.6116,4.5734 L 14.5881,4.5379 L 14.5503,4.4567 L 14.5251,4.3617 L 14.5126,4.2529 L 14.5110,4.1933 L 14.5125,4.1329 L 14.5248,4.0229 L 14.5494,3.9275 L 14.5863,3.8466 L 14.6093,3.8117 L 14.6354,3.7807 L 14.6957,3.7311 L 14.7672,3.6980 L 14.8496,3.6815 L 14.8950,3.6794 L 14.9396,3.6815 L 15.0211,3.6984 L 15.0922,3.7321 L 15.1529,3.7827 L 15.1794,3.8143 L 15.2029,3.8498 L 15.2407,3.9310 L 15.2659,4.0257 L 15.2784,4.1341 L 15.2800,4.1933 L 15.2784,4.2529 L 15.2659,4.3617 L 15.2407,4.4567 L 15.2029,4.5379 L 15.1794,4.5734 L 15.1529,4.6050 L 15.0922,4.6556 L 15.0211,4.6893 L 14.9396,4.7061 L 14.8950,4.7082 Z M 15.5838,3.0224 L 15.6672,3.0224 L 15.6672,3.2591 L 15.5816,3.2415 L 15.5816,3.3057 L 15.6667,3.3234 L 15.7565,3.3234 L 15.7565,3.0224 L 15.8399,3.0224 L 15.8399,2.9571 L 15.5838,2.9571 L 15.5838,3.0224 Z M 16.1056,3.1407 L 16.1048,3.1725 L 16.1005,3.2106 L 16.0957,3.2297 L 16.0927,3.2374 L 16.0892,3.2440 L 16.0806,3.2545 L 16.0697,3.2615 L 16.0567,3.2650 L 16.0494,3.2655 L 16.0420,3.2650 L 16.0290,3.2615 L 16.0182,3.2545 L 16.0095,3.2440 L 16.0060,3.2374 L 16.0029,3.2297 L 15.9980,3.2106 L 15.9937,3.1725 L 15.9929,3.1407 L 15.9937,3.1085 L 15.9980,3.0698 L 16.0029,3.0505 L 16.0060,3.0427 L 16.0095,3.0360 L 16.0182,3.0254 L 16.0290,3.0183 L 16.0420,3.0147 L 16.0494,3.0143 L 16.0567,3.0147 L 16.0696,3.0183 L 16.0804,3.0254 L 16.0890,3.0360 L 16.0925,3.0427 L 16.0956,3.0505 L 16.1005,3.0698 L 16.1048,3.1085 L 16.1056,3.1407 Z M 16.2000,3.1399 L 16.1994,3.1178 L 16.1945,3.0775 L 16.1847,3.0424 L 16.1700,3.0125 L 16.1608,2.9995 L 16.1504,2.9879 L 16.1267,2.9693 L 16.0988,2.9570 L 16.0669,2.9508 L 16.0494,2.9500 L 16.0318,2.9508 L 15.9997,2.9570 L 15.9718,2.9693 L 15.9481,2.9879 L 15.9377,2.9995 L 15.9285,3.0125 L 15.9138,3.0424 L 15.9040,3.0775 L 15.8991,3.1178 L 15.8985,3.1399 L 15.8991,3.1621 L 15.9040,3.2025 L 15.9138,3.2376 L 15.9285,3.2675 L 15.9377,3.2805 L 15.9481,3.2921 L 15.9718,3.3107 L 15.9997,3.3230 L 16.0318,3.3292 L 16.0494,3.3300 L 16.0669,3.3292 L 16.0988,3.3230 L 16.1267,3.3107 L 16.1504,3.2921 L 16.1608,3.2805 L 16.1700,3.2675 L 16.1847,3.2376 L 16.1945,3.2025 L 16.1994,3.1621 L 16.2000,3.1399 Z M 17.6931,4.2827 L 17.7515,4.2856 L 17.8415,4.3089 L 17.8732,4.3292 L 17.8970,4.3564 L 17.9242,4.4333 L 17.9276,4.4830 L 17.9242,4.5322 L 17.8970,4.6080 L 17.8732,4.6345 L 17.8415,4.6545 L 17.7515,4.6775 L 17.6931,4.6803 L 17.5250,4.6803 L 17.5250,4.2827 L 17.6931,4.2827 Z M 17.5250,4.0066 L 17.5250,3.4200 L 17.1254,3.4200 L 17.1254,4.9700 L 17.7356,4.9700 L 17.8097,4.9684 L 17.9423,4.9555 L 18.0545,4.9298 L 18.1462,4.8912 L 18.1844,4.8670 L 18.2179,4.8395 L 18.2715,4.7732 L 18.3072,4.6920 L 18.3250,4.5958 L 18.3273,4.5421 L 18.3226,4.4688 L 18.2982,4.3717 L 18.2703,4.3155 L 18.2529,4.2900 L 18.2332,4.2662 L 18.1867,4.2233 L 18.0993,4.1712 L 18.0293,4.1445 L 18.0692,4.1322 L 18.1427,4.0899 L 18.1761,4.0598 L 18.2088,4.0227 L 18.2745,3.9228 L 18.3077,3.8602 L 18.5246,3.4200 L 18.0991,3.4200 L 17.9100,3.8050 L 17.8814,3.8585 L 17.8234,3.9379 L 17.7941,3.9638 L 17.7624,3.9825 L 17.6844,4.0040 L 17.6380,4.0066 L 17.5250,4.0066 Z M 18.6843,3.0177 L 18.7708,3.0177 L 18.7708,3.2633 L 18.6820,3.2450 L 18.6820,3.3117 L 18.7703,3.3300 L 18.8634,3.3300 L 18.8634,3.0177 L 18.9500,3.0177 L 18.9500,2.9500 L 18.6843,2.9500 L 18.6843,3.0177 Z M 20.4431,4.2827 L 20.5015,4.2856 L 20.5915,4.3089 L 20.6232,4.3292 L 20.6470,4.3564 L 20.6742,4.4333 L 20.6776,4.4830 L 20.6742,4.5322 L 20.6470,4.6080 L 20.6232,4.6345 L 20.5915,4.6545 L 20.5015,4.6775 L 20.4431,4.6803 L 20.2750,4.6803 L 20.2750,4.2827 L 20.4431,4.2827 Z M 20.2750,4.0066 L 20.2750,3.4200 L 19.8754,3.4200 L 19.8754,4.9700 L 20.4856,4.9700 L 20.5597,4.9684 L 20.6923,4.9555 L 20.8045,4.9298 L 20.8962,4.8912 L 20.9344,4.8670 L 20.9679,4.8395 L 21.0215,4.7732 L 21.0572,4.6920 L 21.0750,4.5958 L 21.0773,4.5421 L 21.0726,4.4688 L 21.0482,4.3717 L 21.0203,4.3155 L 21.0029,4.2900 L 20.9832,4.2662 L 20.9367,4.2233 L 20.8493,4.1712 L 20.7793,4.1445 L 20.8192,4.1322 L 20.8927,4.0899 L 20.9261,4.0598 L 20.9588,4.0227 L 21.0245,3.9228 L 21.0577,3.8602 L 21.2746,3.4200 L 20.8491,3.4200 L 20.6600,3.8050 L 20.6314,3.8585 L 20.5734,3.9379 L 20.5441,3.9638 L 20.5124,3.9825 L 20.4344,4.0040 L 20.3880,4.0066 L 20.2750,4.0066 Z M 21.4343,3.0177 L 21.5208,3.0177 L 21.5208,3.2633 L 21.4320,3.2450 L 21.4320,3.3117 L 21.5203,3.3300 L 21.6134,3.3300 L 21.6134,3.0177 L 21.7000,3.0177 L 21.7000,2.9500 L 21.4343,2.9500 L 21.4343,3.0177 Z M 23.1931,4.2827 L 23.2515,4.2856 L 23.3415,4.3089 L 23.3732,4.3292 L 23.3970,4.3564 L 23.4242,4.4333 L 23.4276,4.4830 L 23.4242,4.5322 L 23.3970,4.6080 L 23.3732,4.6345 L 23.3415,4.6545 L 23.2515,4.6775 L 23.1931,4.6803 L 23.0250,4.6803 L 23.0250,4.2827 L 23.1931,4.2827 Z M 23.0250,4.0066 L 23.0250,3.4200 L 22.6254,3.4200 L 22.6254,4.9700 L 23.2356,4.9700 L 23.3097,4.9684 L 23.4423,4.9555 L 23.5545,4.9298 L 23.6462,4.8912 L 23.6844,4.8670 L 23.7179,4.8395 L 23.7715,4.7732 L 23.8072,4.6920 L 23.8250,4.5958 L 23.8273,4.5421 L 23.8226,4.4688 L 23.7982,4.3717 L 23.7703,4.3155 L 23.7529,4.2900 L 23.7332,4.2662 L 23.6867,4.2233 L 23.5993,4.1712 L 23.5293,4.1445 L 23.5692,4.1322 L 23.6427,4.0899 L 23.6761,4.0598 L 23.7088,4.0227 L 23.7745,3.9228 L 23.8077,3.8602 L 24.0246,3.4200 L 23.5991,3.4200 L 23.4100,3.8050 L 23.3814,3.8585 L 23.3234,3.9379 L 23.2941,3.9638 L 23.2624,3.9825 L 23.1844,4.0040 L 23.1380,4.0066 L 23.0250,4.0066 Z M 24.1843,3.0177 L 24.2708,3.0177 L 24.2708,3.2633 L 24.1820,3.2450 L 24.1820,3.3117 L 24.2703,3.3300 L 24.3634,3.3300 L 24.3634,3.0177 L 24.4500,3.0177 L 24.4500,2.9500 L 24.1843,2.9500 L 24.1843,3.0177 Z M 1.1931,7.0327 L 1.2515,7.0356 L 1.3415,7.0589 L 1.3732,7.0792 L 1.3970,7.1064 L 1.4242,7.1833 L 1.4276,7.2330 L 1.4242,7.2822 L 1.3970,7.3580 L 1.3732,7.3845 L 1.3415,7.4045 L 1.2515,7.4275 L 1.1931,7.4303 L 1.0250,7.4303 L 1.0250,7.0327 L 1.1931,7.0327 Z M 1.0250,6.7566 L 1.0250,6.1700 L 0.6254,6.1700 L 0.6254,7.7200 L 1.2356,7.7200 L 1.3097,7.7184 L 1.4423,7.7055 L 1.5545,7.6798 L 1.6462,7.6412 L 1.6844,7.6170 L 1.7179,7.5895 L 1.7715,7.5232 L 1.8072,7.4420 L 1.8250,7.3458 L 1.8273,7.2921 L 1.8226,7.2188 L 1.7982,7.1217 L 1.7703,7.0655 L 1.7529,7.0400 L 1.7332,7.0162 L 1.6867,6.9733 L 1.5993,6.9212 L 1.5293,6.8945 L 1.5692,6.8822 L 1.6427,6.8399 L 1.6761,6.8098 L 1.7088,6.7727 L 1.7745,6.6728 L 1.8077,6.6102 L 2.0246,6.1700 L 1.5991,6.1700 L 1.4100,6.5550 L 1.3814,6.6085 L 1.3234,6.6879 L 1.2941,6.7138 L 1.2624,6.7325 L 1.1844,6.7540 L 1.1380,6.7566 L 1.0250,6.7566 Z M 2.1843,5.7677 L 2.2708,5.7677 L 2.2708,6.0133 L 2.1820,5.9950 L 2.1820,6.0617 L 2.2703,6.0800 L 2.3634,6.0800 L 2.3634,5.7677 L 2.4500,5.7677 L 2.4500,5.7000 L 2.1843,5.7000 L 2.1843,5.7677 Z M 3.9431,7.0327 L 4.0015,7.0356 L 4.0915,7.0589 L 4.1232,7.0792 L 4.1470,7.1064 L 4.1742,7.1833 L 4.1776,7.2330 L 4.1742,7.2822 L 4.1470,7.3580 L 4.1232,7.3845 L 4.0915,7.4045 L 4.0015,7.4275 L 3.9431,7.4303 L 3.7750,7.4303 L 3.7750,7.0327 L 3.9431,7.0327 Z M 3.7750,6.7566 L 3.7750,6.1700 L 3.3754,6.1700 L 3.3754,7.7200 L 3.9856,7.7200 L 4.0597,7.7184 L 4.1923,7.7055 L 4.3045,7.6798 L 4.3962,7.6412 L 4.4344,7.6170 L 4.4679,7.5895 L 4.5215,7.5232 L 4.5572,7.4420 L 4.5750,7.3458 L 4.5773,7.2921 L 4.5726,7.2188 L 4.5482,7.1217 L 4.5203,7.0655 L 4.5029,7.0400 L 4.4832,7.0162 L 4.4367,6.9733 L 4.3493,6.9212 L 4.2793,6.8945 L 4.3192,6.8822 L 4.3927,6.8399 L 4.4261,6.8098 L 4.4588,6.7727 L 4.5245,6.6728 L 4.5577,6.6102 L 4.7746,6.1700 L 4.3491,6.1700 L 4.1600,6.5550 L 4.1314,6.6085 L 4.0734,6.6879 L 4.0441,6.7138 L 4.0124,6.7325 L 3.9344,6.7540 L 3.8880,6.7566 L 3.7750,6.7566 Z M 4.9343,5.7677 L 5.0208,5.7677 L 5.0208,6.0133 L 4.9320,5.9950 L 4.9320,6.0617 L 5.0203,6.0800 L 5.1134,6.0800 L 5.1134,5.7677 L 5.2000,5.7677 L 5.2000,5.7000 L 4.9343,5.7000 L 4.9343,5.7677 Z M 6.6931,7.0327 L 6.7515,7.0356 L 6.8415,7.0589 L 6.8732,7.0792 L 6.8970,7.1064 L 6.9242,7.1833 L 6.9276,7.2330 L 6.9242,7.2822 L 6.8970,7.3580 L 6.8732,7.3845 L 6.8415,7.4045 L 6.7515,7.4275 L 6.6931,7.4303 L 6.5250,7.4303 L 6.5250,7.0327 L 6.6931,7.0327 Z M 6.5250,6.7566 L 6.5250,6.1700 L 6.1254,6.1700 L 6.1254,7.7200 L 6.7356,7.7200 L 6.8097,7.7184 L 6.9423,7.7055 L 7.0545,7.6798 L 7.1462,7.6412 L 7.1844,7.6170 L 7.2179,7.5895 L 7.2715,7.5232 L 7.3072,7.4420 L 7.3250,7.3458 L 7.3273,7.2921 L 7.3226,7.2188 L 7.2982,7.1217 L 7.2703,7.0655 L 7.2529,7.0400 L 7.2332,7.0162 L 7.1867,6.9733 L 7.0993,6.9212 L 7.0293,6.8945 L 7.0692,6.8822 L 7.1427,6.8399 L 7.1761,6.8098 L 7.2088,6.7727 L 7.2745,6.6728 L 7.3077,6.6102 L 7.5246,6.1700 L 7.0991,6.1700 L 6.9100,6.5550 L 6.8814,6.6085 L 6.8234,6.6879 L 6.7941,6.7138 L 6.7624,6.7325 L 6.6844,6.7540 L 6.6380,6.7566 L 6.5250,6.7566 Z M 7.6843,5.7677 L 7.7708,5.7677 L 7.7708,6.0133 L 7.6820,5.9950 L 7.6820,6.0617 L 7.7703,6.0800 L 7.8634,6.0800 L 7.8634,5.7677 L 7.9500,5.7677 L 7.9500,5.7000 L 7.6843,5.7000 L 7.6843,5.7677 Z M 10.0846,7.6712 L 10.0846,7.3430 L 10.0212,7.3698 L 9.8966,7.4128 L 9.8354,7.4290 L 9.7756,7.4418 L 9.6610,7.4564 L 9.6062,7.4582 L 9.5393,7.4558 L 9.4333,7.4360 L 9.3943,7.4187 L 9.3643,7.3964 L 9.3301,7.3352 L 9.3259,7.2965 L 9.3287,7.2670 L 9.3518,7.2183 L 9.3720,7.1991 L 9.3998,7.1825 L 9.4837,7.1527 L 9.5398,7.1397 L 9.7099,7.1054 L 9.7721,7.0916 L 9.8827,7.0588 L 9.9745,7.0192 L 10.0477,6.9730 L 10.0773,6.9473 L 10.1029,6.9195 L 10.1439,6.8555 L 10.1712,6.7802 L 10.1849,6.6938 L 10.1866,6.6464 L 10.1842,6.5844 L 10.1652,6.4727 L 10.1271,6.3773 L 10.0701,6.2984 L 10.0344,6.2650 L 9.9939,6.2357 L 9.8977,6.1887 L 9.7816,6.1574 L 9.6453,6.1417 L 9.5697,6.1398 L 9.4960,6.1415 L 9.3482,6.1557 L 9.2740,6.1680 L 9.1998,6.1837 L 9.0513,6.2252 L 8.9771,6.2511 L 8.9771,6.5882 L 9.0507,6.5513 L 9.1942,6.4918 L 9.2641,6.4693 L 9.3327,6.4519 L 9.4664,6.4319 L 9.5315,6.4294 L 9.5931,6.4322 L 9.6932,6.4539 L 9.7318,6.4730 L 9.7622,6.4972 L 9.7969,6.5597 L 9.8012,6.5979 L 9.7983,6.6320 L 9.7747,6.6880 L 9.7541,6.7098 L 9.7246,6.7291 L 9.6304,6.7644 L 9.5657,6.7806 L 9.4109,6.8148 L 9.3547,6.8282 L 9.2541,6.8605 L 9.1690,6.9002 L 9.0996,6.9473 L 9.0707,6.9736 L 9.0456,7.0020 L 9.0054,7.0659 L 8.9785,7.1394 L 8.9651,7.2222 L 8.9634,7.2672 L 8.9658,7.3234 L 8.9845,7.4258 L 9.0218,7.5149 L 9.0779,7.5905 L 9.1129,7.6233 L 9.1523,7.6525 L 9.2434,7.6992 L 9.3509,7.7304 L 9.4747,7.7460 L 9.5428,7.7479 L 9.6724,7.7431 L 9.8055,7.7286 L 9.9427,7.7046 L 10.0846,7.6712 Z M 10.4343,5.7677 L 10.5208,5.7677 L 10.5208,6.0133 L 10.4320,5.9950 L 10.4320,6.0617 L 10.5203,6.0800 L 10.6134,6.0800 L 10.6134,5.7677 L 10.7000,5.7677 L 10.7000,5.7000 L 10.4343,5.7000 L 10.4343,5.7677 Z M 12.8346,7.6712 L 12.8346,7.3430 L 12.7712,7.3698 L 12.6466,7.4128 L 12.5854,7.4290 L 12.5256,7.4418 L 12.4110,7.4564 L 12.3562,7.4582 L 12.2893,7.4558 L 12.1833,7.4360 L 12.1443,7.4187 L 12.1143,7.3964 L 12.0801,7.3352 L 12.0759,7.2965 L 12.0787,7.2670 L 12.1018,7.2183 L 12.1220,7.1991 L 12.1498,7.1825 L 12.2337,7.1527 L 12.2898,7.1397 L 12.4599,7.1054 L 12.5221,7.0916 L 12.6327,7.0588 L 12.7245,7.0192 L 12.7977,6.9730 L 12.8273,6.9473 L 12.8529,6.9195 L 12.8939,6.8555 L 12.9212,6.7802 L 12.9349,6.6938 L 12.9366,6.6464 L 12.9342,6.5844 L 12.9152,6.4727 L 12.8771,6.3773 L 12.8201,6.2984 L 12.7844,6.2650 L 12.7439,6.2357 L 12.6477,6.1887 L 12.5316,6.1574 L 12.3953,6.1417 L 12.3197,6.1398 L 12.2460,6.1415 L 12.0982,6.1557 L 12.0240,6.1680 L 11.9498,6.1837 L 11.8013,6.2252 L 11.7271,6.2511 L 11.7271,6.5882 L 11.8007,6.5513 L 11.9442,6.4918 L 12.0141,6.4693 L 12.0827,6.4519 L 12.2164,6.4319 L 12.2815,6.4294 L 12.3431,6.4322 L 12.4432,6.4539 L 12.4818,6.4730 L 12.5122,6.4972 L 12.5469,6.5597 L 12.5512,6.5979 L 12.5483,6.6320 L 12.5247,6.6880 L 12.5041,6.7098 L 12.4746,6.7291 L 12.3804,6.7644 L 12.3157,6.7806 L 12.1609,6.8148 L 12.1047,6.8282 L 12.0041,6.8605 L 11.9190,6.9002 L 11.8496,6.9473 L 11.8207,6.9736 L 11.7956,7.0020 L 11.7554,7.0659 L 11.7285,7.1394 L 11.7151,7.2222 L 11.7134,7.2672 L 11.7158,7.3234 L 11.7345,7.4258 L 11.7718,7.5149 L 11.8279,7.5905 L 11.8629,7.6233 L 11.9023,7.6525 L 11.9934,7.6992 L 12.1009,7.7304 L 12.2247,7.7460 L 12.2928,7.7479 L 12.4224,7.7431 L 12.5555,7.7286 L 12.6927,7.7046 L 12.8346,7.6712 Z M 13.1843,5.7677 L 13.2708,5.7677 L 13.2708,6.0133 L 13.1820,5.9950 L 13.1820,6.0617 L 13.2703,6.0800 L 13.3634,6.0800 L 13.3634,5.7677 L 13.4500,5.7677 L 13.4500,5.7000 L 13.1843,5.7000 L 13.1843,5.7677 Z M 15.5846,7.6712 L 15.5846,7.3430 L 15.5212,7.3698 L 15.3966,7.4128 L 15.3354,7.4290 L 15.2756,7.4418 L 15.1610,7.4564 L 15.1062,7.4582 L 15.0393,7.4558 L 14.9333,7.4360 L 14.8943,7.4187 L 14.8643,7.3964 L 14.8301,7.3352 L 14.8259,7.2965 L 14.8287,7.2670 L 14.8518,7.2183 L 14.8720,7.1991 L 14.8998,7.1825 L 14.9837,7.1527 L 15.0398,7.1397 L 15.2099,7.1054 L 15.2721,7.0916 L 15.3827,7.0588 L 15.4745,7.0192 L 15.5477,6.9730 L 15.5773,6.9473 L 15.6029,6.9195 L 15.6439,6.8555 L 15.6712,6.7802 L 15.6849,6.6938 L 15.6866,6.6464 L 15.6842,6.5844 L 15.6652,6.4727 L 15.6271,6.3773 L 15.5701,6.2984 L 15.5344,6.2650 L 15.4939,6.2357 L 15.3977,6.1887 L 15.2816,6.1574 L 15.1453,6.1417 L 15.0697,6.1398 L 14.9960,6.1415 L 14.8482,6.1557 L 14.7740,6.1680 L 14.6998,6.1837 L 14.5513,6.2252 L 14.4771,6.2511 L 14.4771,6.5882 L 14.5507,6.5513 L 14.6942,6.4918 L 14.7641,6.4693 L 14.8327,6.4519 L 14.9664,6.4319 L 15.0315,6.4294 L 15.0931,6.4322 L 15.1932,6.4539 L 15.2318,6.4730 L 15.2622,6.4972 L 15.2969,6.5597 L 15.3012,6.5979 L 15.2983,6.6320 L 15.2747,6.6880 L 15.2541,6.7098 L 15.2246,6.7291 L 15.1304,6.7644 L 15.0657,6.7806 L 14.9109,6.8148 L 14.8547,6.8282 L 14.7541,6.8605 L 14.6690,6.9002 L 14.5996,6.9473 L 14.5707,6.9736 L 14.5456,7.0020 L 14.5054,7.0659 L 14.4785,7.1394 L 14.4651,7.2222 L 14.4634,7.2672 L 14.4658,7.3234 L 14.4845,7.4258 L 14.5218,7.5149 L 14.5779,7.5905 L 14.6129,7.6233 L 14.6523,7.6525 L 14.7434,7.6992 L 14.8509,7.7304 L 14.9747,7.7460 L 15.0428,7.7479 L 15.1724,7.7431 L 15.3055,7.7286 L 15.4427,7.7046 L 15.5846,7.6712 Z M 15.9343,5.7677 L 16.0208,5.7677 L 16.0208,6.0133 L 15.9320,5.9950 L 15.9320,6.0617 L 16.0203,6.0800 L 16.1134,6.0800 L 16.1134,5.7677 L 16.2000,5.7677 L 16.2000,5.7000 L 15.9343,5.7000 L 15.9343,5.7677 Z M 18.3346,7.6712 L 18.3346,7.3430 L 18.2712,7.3698 L 18.1466,7.4128 L 18.0854,7.4290 L 18.0256,7.4418 L 17.9110,7.4564 L 17.8562,7.4582 L 17.7893,7.4558 L 17.6833,7.4360 L 17.6443,7.4187 L 17.6143,7.3964 L 17.5801,7.3352 L 17.5759,7.2965 L 17.5787,7.2670 L 17.6018,7.2183 L 17.6220,7.1991 L 17.6498,7.1825 L 17.7337,7.1527 L 17.7898,7.1397 L 17.9599,7.1054 L 18.0221,7.0916 L 18.1327,7.0588 L 18.2245,7.0192 L 18.2977,6.9730 L 18.3273,6.9473 L 18.3529,6.9195 L 18.3939,6.8555 L 18.4212,6.7802 L 18.4349,6.6938 L 18.4366,6.6464 L 18.4342,6.5844 L 18.4152,6.4727 L 18.3771,6.3773 L 18.3201,6.2984 L 18.2844,6.2650 L 18.2439,6.2357 L 18.1477,6.1887 L 18.0316,6.1574 L 17.8953,6.1417 L 17.8197,6.1398 L 17.7460,6.1415 L 17.5982,6.1557 L 17.5240,6.1680 L 17.4498,6.1837 L 17.3013,6.2252 L 17.2271,6.2511 L 17.2271,6.5882 L 17.3007,6.5513 L 17.4442,6.4918 L 17.5141,6.4693 L 17.5827,6.4519 L 17.7164,6.4319 L 17.7815,6.4294 L 17.8431,6.4322 L 17.9432,6.4539 L 17.9818,6.4730 L 18.0122,6.4972 L 18.0469,6.5597 L 18.0512,6.5979 L 18.0483,6.6320 L 18.0247,6.6880 L 18.0041,6.7098 L 17.9746,6.7291 L 17.8804,6.7644 L 17.8157,6.7806 L 17.6609,6.8148 L 17.6047,6.8282 L 17.5041,6.8605 L 17.4190,6.9002 L 17.3496,6.9473 L 17.3207,6.9736 L 17.2956,7.0020 L 17.2554,7.0659 L 17.2285,7.1394 L 17.2151,7.2222 L 17.2134,7.2672 L 17.2158,7.3234 L 17.2345,7.4258 L 17.2718,7.5149 L 17.3279,7.5905 L 17.3629,7.6233 L 17.4023,7.6525 L 17.4934,7.6992 L 17.6009,7.7304 L 17.7247,7.7460 L 17.7928,7.7479 L 17.9224,7.7431 L 18.0555,7.7286 L 18.1927,7.7046 L 18.3346,7.6712 Z M 18.6843,5.7677 L 18.7708,5.7677 L 18.7708,6.0133 L 18.6820,5.9950 L 18.6820,6.0617 L 18.7703,6.0800 L 18.8634,6.0800 L 18.8634,5.7677 L 18.9500,5.7677 L 18.9500,5.7000 L 18.6843,5.7000 L 18.6843,5.7677 Z M 19.8608,7.7200 L 21.2892,7.7200 L 21.2892,7.4177 L 20.7753,7.4177 L 20.7753,6.1700 L 20.3757,6.1700 L 20.3757,7.4177 L 19.8608,7.4177 L 19.8608,7.7200 Z M 21.4343,5.7677 L 21.5208,5.7677 L 21.5208,6.0133 L 21.4320,5.9950 L 21.4320,6.0617 L 21.5203,6.0800 L 21.6134,6.0800 L 21.6134,5.7677 L 21.7000,5.7677 L 21.7000,5.7000 L 21.4343,5.7000 L 21.4343,5.7677 Z M 22.6108,7.7200 L 24.0392,7.7200 L 24.0392,7.4177 L 23.5253,7.4177 L 23.5253,6.1700 L 23.1257,6.1700 L 23.1257,7.4177 L 22.6108,7.4177 L 22.6108,7.7200 Z M 24.1843,5.7677 L 24.2708,5.7677 L 24.2708,6.0133 L 24.1820,5.9950 L 24.1820,6.0617 L 24.2703,6.0800 L 24.3634,6.0800 L 24.3634,5.7677 L 24.4500,5.7677 L 24.4500,5.7000 L 24.1843,5.7000 L 24.1843,5.7677 Z M 0.6108,10.4700 L 2.0392,10.4700 L 2.0392,10.1677 L 1.5253,10.1677 L 1.5253,8.9200 L 1.1257,8.9200 L 1.1257,10.1677 L 0.6108,10.1677 L 0.6108,10.4700 Z M 2.1843,8.5177 L 2.2708,8.5177 L 2.2708,8.7633 L 2.1820,8.7450 L 2.1820,8.8117 L 2.2703,8.8300 L 2.3634,8.8300 L 2.3634,8.5177 L 2.4500,8.5177 L 2.4500,8.4500 L 2.1843,8.4500 L 2.1843,8.5177 Z M 3.3608,10.4700 L 4.7892,10.4700 L 4.7892,10.1677 L 4.2753,10.1677 L 4.2753,8.9200 L 3.8757,8.9200 L 3.8757,10.1677 L 3.3608,10.1677 L 3.3608,10.4700 Z M 4.9343,8.5177 L 5.0208,8.5177 L 5.0208,8.7633 L 4.9320,8.7450 L 4.9320,8.8117 L 5.0203,8.8300 L 5.1134,8.8300 L 5.1134,8.5177 L 5.2000,8.5177 L 5.2000,8.4500 L 4.9343,8.4500 L 4.9343,8.5177 Z M 6.1108,10.4700 L 7.5392,10.4700 L 7.5392,10.1677 L 7.0253,10.1677 L 7.0253,8.9200 L 6.6257,8.9200 L 6.6257,10.1677 L 6.1108,10.1677 L 6.1108,10.4700 Z M 7.6843,8.5177 L 7.7708,8.5177 L 7.7708,8.7633 L 7.6820,8.7450 L 7.6820,8.8117 L 7.7703,8.8300 L 7.8634,8.8300 L 7.8634,8.5177 L 7.9500,8.5177 L 7.9500,8.4500 L 7.6843,8.4500 L 7.6843,8.5177 Z M 8.8608,10.4700 L 10.2892,10.4700 L 10.2892,10.1677 L 9.7753,10.1677 L 9.7753,8.9200 L 9.3757,8.9200 L 9.3757,10.1677 L 8.8608,10.1677 L 8.8608,10.4700 Z M 10.4343,8.5177 L 10.5208,8.5177 L 10.5208,8.7633 L 10.4320,8.7450 L 10.4320,8.8117 L 10.5203,8.8300 L 10.6134,8.8300 L 10.6134,8.5177 L 10.7000,8.5177 L 10.7000,8.4500 L 10.4343,8.4500 L 10.4343,8.5177 Z M 11.6571,10.4700 L 12.0568,10.4700 L 12.0568,9.5409 L 12.0607,9.4517 L 12.0813,9.3435 L 12.1048,9.2885 L 12.1195,9.2661 L 12.1365,9.2468 L 12.1778,9.2159 L 12.2290,9.1953 L 12.2902,9.1850 L 12.3245,9.1838 L 12.3590,9.1850 L 12.4206,9.1953 L 12.4721,9.2159 L 12.5135,9.2468 L 12.5305,9.2661 L 12.5452,9.2885 L 12.5687,9.3435 L 12.5893,9.4517 L 12.5932,9.5409 L 12.5932,10.4700 L 12.9929,10.4700 L 12.9929,9.5409 L 12.9903,9.4612 L 12.9697,9.3176 L 12.9284,9.1950 L 12.8665,9.0935 L 12.8278,9.0506 L 12.7839,9.0129 L 12.6798,8.9526 L 12.5539,8.9124 L 12.4064,8.8923 L 12.3245,8.8898 L 12.2428,8.8923 L 12.0956,8.9124 L 11.9700,8.9526 L 11.8659,9.0129 L 11.8219,9.0506 L 11.7833,9.0935 L 11.7215,9.1950 L 11.6803,9.3176 L 11.6597,9.4612 L 11.6571,9.5409 L 11.6571,10.4700 Z M 13.1843,8.5177 L 13.2708,8.5177 L 13.2708,8.7633 L 13.1820,8.7450 L 13.1820,8.8117 L 13.2703,8.8300 L 13.3634,8.8300 L 13.3634,8.5177 L 13.4500,8.5177 L 13.4500,8.4500 L 13.1843,8.4500 L 13.1843,8.5177 Z M 14.4071,10.4700 L 14.8068,10.4700 L 14.8068,9.5409 L 14.8107,9.4517 L 14.8313,9.3435 L 14.8548,9.2885 L 14.8695,9.2661 L 14.8865,9.2468 L 14.9278,9.2159 L 14.9790,9.1953 L 15.0402,9.1850 L 15.0745,9.1838 L 15.1090,9.1850 L 15.1706,9.1953 L 15.2221,9.2159 L 15.2635,9.2468 L 15.2805,9.2661 L 15.2952,9.2885 L 15.3187,9.3435 L 15.3393,9.4517 L 15.3432,9.5409 L 15.3432,10.4700 L 15.7429,10.4700 L 15.7429,9.5409 L 15.7403,9.4612 L 15.7197,9.3176 L 15.6784,9.1950 L 15.6165,9.0935 L 15.5778,9.0506 L 15.5339,9.0129 L 15.4298,8.9526 L 15.3039,8.9124 L 15.1564,8.8923 L 15.0745,8.8898 L 14.9928,8.8923 L 14.8456,8.9124 L 14.7200,8.9526 L 14.6159,9.0129 L 14.5719,9.0506 L 14.5333,9.0935 L 14.4715,9.1950 L 14.4303,9.3176 L 14.4097,9.4612 L 14.4071,9.5409 L 14.4071,10.4700 Z M 15.9343,8.5177 L 16.0208,8.5177 L 16.0208,8.7633 L 15.9320,8.7450 L 15.9320,8.8117 L 16.0203,8.8300 L 16.1134,8.8300 L 16.1134,8.5177 L 16.2000,8.5177 L 16.2000,8.4500 L 15.9343,8.4500 L 15.9343,8.5177 Z M 17.1571,10.4700 L 17.5568,10.4700 L 17.5568,9.5409 L 17.5607,9.4517 L 17.5813,9.3435 L 17.6048,9.2885 L 17.6195,9.2661 L 17.6365,9.2468 L 17.6778,9.2159 L 17.7290,9.1953 L 17.7902,9.1850 L 17.8245,9.1838 L 17.8590,9.1850 L 17.9206,9.1953 L 17.9721,9.2159 L 18.0135,9.2468 L 18.0305,9.2661 L 18.0452,9.2885 L 18.0687,9.3435 L 18.0893,9.4517 L 18.0932,9.5409 L 18.0932,10.4700 L 18.4929,10.4700 L 18.4929,9.5409 L 18.4903,9.4612 L 18.4697,9.3176 L 18.4284,9.1950 L 18.3665,9.0935 L 18.3278,9.0506 L 18.2839,9.0129 L 18.1798,8.9526 L 18.0539,8.9124 L 17.9064,8.8923 L 17.8245,8.8898 L 17.7428,8.8923 L 17.5956,8.9124 L 17.4700,8.9526 L 17.3659,9.0129 L 17.3219,9.0506 L 17.2833,9.0935 L 17.2215,9.1950 L 17.1803,9.3176 L 17.1597,9.4612 L 17.1571,9.5409 L 17.1571,10.4700 Z M 18.6843,8.5177 L 18.7708,8.5177 L 18.7708,8.7633 L 18.6820,8.7450 L 18.6820,8.8117 L 18.7703,8.8300 L 18.8634,8.8300 L 18.8634,8.5177 L 18.9500,8.5177 L 18.9500,8.4500 L 18.6843,8.4500 L 18.6843,8.5177 Z M 19.9071,10.4700 L 20.3068,10.4700 L 20.3068,9.5409 L 20.3107,9.4517 L 20.3313,9.3435 L 20.3548,9.2885 L 20.3695,9.2661 L 20.3865,9.2468 L 20.4278,9.2159 L 20.4790,9.1953 L 20.5402,9.1850 L 20.5745,9.1838 L 20.6090,9.1850 L 20.6706,9.1953 L 20.7221,9.2159 L 20.7635,9.2468 L 20.7805,9.2661 L 20.7952,9.2885 L 20.8187,9.3435 L 20.8393,9.4517 L 20.8432,9.5409 L 20.8432,10.4700 L 21.2429,10.4700 L 21.2429,9.5409 L 21.2403,9.4612 L 21.2197,9.3176 L 21.1784,9.1950 L 21.1165,9.0935 L 21.0778,9.0506 L 21.0339,9.0129 L 20.9298,8.9526 L 20.8039,8.9124 L 20.6564,8.8923 L 20.5745,8.8898 L 20.4928,8.8923 L 20.3456,8.9124 L 20.2200,8.9526 L 20.1159,9.0129 L 20.0719,9.0506 L 20.0333,9.0935 L 19.9715,9.1950 L 19.9303,9.3176 L 19.9097,9.4612 L 19.9071,9.5409 L 19.9071,10.4700 Z M 21.4343,8.5177 L 21.5208,8.5177 L 21.5208,8.7633 L 21.4320,8.7450 L 21.4320,8.8117 L 21.5203,8.8300 L 21.6134,8.8300 L 21.6134,8.5177 L 21.7000,8.5177 L 21.7000,8.4500 L 21.4343,8.4500 L 21.4343,8.5177 Z M 22.5126,10.4700 L 22.9146,10.4700 L 23.3255,9.3259 L 23.7358,10.4700 L 24.1374,10.4700 L 23.5633,8.9200 L 23.0867,8.9200 L 22.5126,10.4700 Z M 24.3032,8.7493 L 24.1958,8.5902 L 24.3032,8.5902 L 24.3032,8.7493 Z M 24.2869,8.8300 L 24.3958,8.8300 L 24.3958,8.5902 L 24.4500,8.5902 L 24.4500,8.5192 L 24.3958,8.5192 L 24.3958,8.4500 L 24.3032,8.4500 L 24.3032,8.5192 L 24.1347,8.5192 L 24.1347,8.6032 L 24.2869,8.8300 Z M 0.5126,13.2200 L 0.9146,13.2200 L 1.3255,12.0759 L 1.7358,13.2200 L 2.1374,13.2200 L 1.5633,11.6700 L 1.0867,11.6700 L 0.5126,13.2200 Z M 2.3032,11.4993 L 2.1958,11.3402 L 2.3032,11.3402 L 2.3032,11.4993 Z M 2.2869,11.5800 L 2.3958,11.5800 L 2.3958,11.3402 L 2.4500,11.3402 L 2.4500,11.2692 L 2.3958,11.2692 L 2.3958,11.2000 L 2.3032,11.2000 L 2.3032,11.2692 L 2.1347,11.2692 L 2.1347,11.3532 L 2.2869,11.5800 Z M 2.9675,13.2200 L 3.3505,13.2200 L 3.6182,12.0935 L 3.8840,13.2200 L 4.2690,13.2200 L 4.5348,12.0935 L 4.8028,13.2200 L 5.1825,13.2200 L 4.8171,11.6700 L 4.3564,11.6700 L 4.0750,12.8483 L 3.7970,11.6700 L 3.3359,11.6700 L 2.9675,13.2200 Z M 5.0532,11.4993 L 4.9458,11.3402 L 5.0532,11.3402 L 5.0532,11.4993 Z M 5.0369,11.5800 L 5.1458,11.5800 L 5.1458,11.3402 L 5.2000,11.3402 L 5.2000,11.2692 L 5.1458,11.2692 L 5.1458,11.2000 L 5.0532,11.2000 L 5.0532,11.2692 L 4.8847,11.2692 L 4.8847,11.3532 L 5.0369,11.5800 Z M 5.7175,13.2200 L 6.1005,13.2200 L 6.3682,12.0935 L 6.6340,13.2200 L 7.0190,13.2200 L 7.2848,12.0935 L 7.5528,13.2200 L 7.9325,13.2200 L 7.5671,11.6700 L 7.1064,11.6700 L 6.8250,12.8483 L 6.5470,11.6700 L 6.0859,11.6700 L 5.7175,13.2200 Z M 7.8032,11.4993 L 7.6958,11.3402 L 7.8032,11.3402 L 7.8032,11.4993 Z M 7.7869,11.5800 L 7.8958,11.5800 L 7.8958,11.3402 L 7.9500,11.3402 L 7.9500,11.2692 L 7.8958,11.2692 L 7.8958,11.2000 L 7.8032,11.2000 L 7.8032,11.2692 L 7.6347,11.2692 L 7.6347,11.3532 L 7.7869,11.5800 Z M 9.8155,12.4609 L 10.3530,11.6700 L 9.9368,11.6700 L 9.5747,12.1995 L 9.2152,11.6700 L 8.7970,11.6700 L 9.3348,12.4609 L 8.8176,13.2200 L 9.2352,13.2200 L 9.5747,12.7207 L 9.9128,13.2200 L 10.3324,13.2200 L 9.8155,12.4609 Z M 10.5565,11.3710 L 10.5440,11.3701 L 10.5237,11.3629 L 10.5158,11.3565 L 10.5096,11.3485 L 10.5024,11.3278 L 10.5016,11.3151 L 10.5024,11.3024 L 10.5096,11.2817 L 10.5158,11.2737 L 10.5237,11.2675 L 10.5440,11.2603 L 10.5565,11.2594 L 10.5689,11.2603 L 10.5890,11.2675 L 10.5968,11.2737 L 10.6029,11.2817 L 10.6099,11.3024 L 10.6107,11.3151 L 10.6099,11.3279 L 10.6029,11.3487 L 10.5968,11.3567 L 10.5890,11.3630 L 10.5689,11.3701 L 10.5565,11.3710 Z M 10.4876,11.4021 L 10.4719,11.4079 L 10.4468,11.4233 L 10.4373,11.4331 L 10.4299,11.4441 L 10.4215,11.4702 L 10.4204,11.4851 L 10.4209,11.4963 L 10.4253,11.5167 L 10.4339,11.5344 L 10.4468,11.5493 L 10.4549,11.5557 L 10.4641,11.5614 L 10.4854,11.5705 L 10.5108,11.5766 L 10.5403,11.5796 L 10.5565,11.5800 L 10.5726,11.5796 L 10.6019,11.5766 L 10.6271,11.5706 L 10.6484,11.5615 L 10.6575,11.5558 L 10.6656,11.5494 L 10.6786,11.5345 L 10.6873,11.5169 L 10.6916,11.4964 L 10.6922,11.4851 L 10.6911,11.4702 L 10.6826,11.4441 L 10.6751,11.4331 L 10.6656,11.4233 L 10.6404,11.4079 L 10.6247,11.4021 L 10.6422,11.3962 L 10.6642,11.3842 L 10.6760,11.3743 L 10.6810,11.3687 L 10.6855,11.3627 L 10.6926,11.3496 L 10.6973,11.3350 L 10.6997,11.3188 L 10.7000,11.3102 L 10.6994,11.2970 L 10.6949,11.2731 L 10.6859,11.2525 L 10.6723,11.2352 L 10.6638,11.2279 L 10.6542,11.2213 L 10.6318,11.2109 L 10.6049,11.2039 L 10.5737,11.2004 L 10.5565,11.2000 L 10.5392,11.2004 L 10.5079,11.2039 L 10.4810,11.2109 L 10.4584,11.2213 L 10.4487,11.2279 L 10.4402,11.2352 L 10.4265,11.2525 L 10.4174,11.2731 L 10.4129,11.2970 L 10.4123,11.3102 L 10.4126,11.3188 L 10.4150,11.3350 L 10.4197,11.3496 L 10.4269,11.3627 L 10.4313,11.3687 L 10.4363,11.3743 L 10.4481,11.3842 L 10.4701,11.3962 L 10.4876,11.4021 Z M 10.5096,11.4755 L 10.5104,11.4652 L 10.5165,11.4484 L 10.5218,11.4419 L 10.5285,11.4368 L 10.5459,11.4309 L 10.5565,11.4302 L 10.5669,11.4309 L 10.5839,11.4368 L 10.5906,11.4419 L 10.5959,11.4484 L 10.6019,11.4652 L 10.6027,11.4755 L 10.6019,11.4858 L 10.5959,11.5025 L 10.5906,11.5090 L 10.5839,11.5141 L 10.5669,11.5199 L 10.5565,11.5207 L 10.5459,11.5199 L 10.5285,11.5140 L 10.5218,11.5089 L 10.5165,11.5024 L 10.5104,11.4857 L 10.5096,11.4755 Z M 11.5344,13.2200 L 11.9715,13.2200 L 12.3247,12.6676 L 12.6775,13.2200 L 13.1156,13.2200 L 12.5250,12.3231 L 12.5250,11.6700 L 12.1254,11.6700 L 12.1254,12.3231 L 11.5344,13.2200 Z M 13.3032,11.4993 L 13.1958,11.3402 L 13.3032,11.3402 L 13.3032,11.4993 Z M 13.2869,11.5800 L 13.3958,11.5800 L 13.3958,11.3402 L 13.4500,11.3402 L 13.4500,11.2692 L 13.3958,11.2692 L 13.3958,11.2000 L 13.3032,11.2000 L 13.3032,11.2692 L 13.1347,11.2692 L 13.1347,11.3532 L 13.2869,11.5800 Z M 14.2844,13.2200 L 14.7215,13.2200 L 15.0747,12.6676 L 15.4275,13.2200 L 15.8656,13.2200 L 15.2750,12.3231 L 15.2750,11.6700 L 14.8754,11.6700 L 14.8754,12.3231 L 14.2844,13.2200 Z M 16.0532,11.4993 L 15.9458,11.3402 L 16.0532,11.3402 L 16.0532,11.4993 Z M 16.0369,11.5800 L 16.1458,11.5800 L 16.1458,11.3402 L 16.2000,11.3402 L 16.2000,11.2692 L 16.1458,11.2692 L 16.1458,11.2000 L 16.0532,11.2000 L 16.0532,11.2692 L 15.8847,11.2692 L 15.8847,11.3532 L 16.0369,11.5800 Z M 17.1734,13.2200 L 18.4763,13.2200 L 18.4763,12.9782 L 17.6448,11.9720 L 18.5002,11.9720 L 18.5002,11.6700 L 17.1498,11.6700 L 17.1498,11.9118 L 17.9813,12.9177 L 17.1734,12.9177 L 17.1734,13.2200 Z M 18.3338,11.2724 L 18.4172,11.2724 L 18.4172,11.5091 L 18.3316,11.4915 L 18.3316,11.5557 L 18.4167,11.5734 L 18.5065,11.5734 L 18.5065,11.2724 L 18.5899,11.2724 L 18.5899,11.2071 L 18.3338,11.2071 L 18.3338,11.2724 Z M 18.8556,11.3907 L 18.8548,11.4225 L 18.8505,11.4606 L 18.8457,11.4797 L 18.8427,11.4874 L 18.8392,11.4940 L 18.8306,11.5045 L 18.8197,11.5115 L 18.8067,11.5150 L 18.7994,11.5155 L 18.7920,11.5150 L 18.7790,11.5115 L 18.7682,11.5045 L 18.7595,11.4940 L 18.7560,11.4874 L 18.7529,11.4797 L 18.7480,11.4606 L 18.7437,11.4225 L 18.7429,11.3907 L 18.7437,11.3585 L 18.7480,11.3198 L 18.7529,11.3005 L 18.7560,11.2927 L 18.7595,11.2860 L 18.7682,11.2754 L 18.7790,11.2683 L 18.7920,11.2647 L 18.7994,11.2643 L 18.8067,11.2647 L 18.8196,11.2683 L 18.8304,11.2754 L 18.8390,11.2860 L 18.8425,11.2927 L 18.8456,11.3005 L 18.8505,11.3198 L 18.8548,11.3585 L 18.8556,11.3907 Z M 18.9500,11.3899 L 18.9494,11.3678 L 18.9445,11.3275 L 18.9347,11.2924 L 18.9200,11.2625 L 18.9108,11.2495 L 18.9004,11.2379 L 18.8767,11.2193 L 18.8488,11.2070 L 18.8169,11.2008 L 18.7994,11.2000 L 18.7818,11.2008 L 18.7497,11.2070 L 18.7218,11.2193 L 18.6981,11.2379 L 18.6877,11.2495 L 18.6785,11.2625 L 18.6638,11.2924 L 18.6540,11.3275 L 18.6491,11.3678 L 18.6485,11.3899 L 18.6491,11.4121 L 18.6540,11.4525 L 18.6638,11.4876 L 18.6785,11.5175 L 18.6877,11.5305 L 18.6981,11.5421 L 18.7218,11.5607 L 18.7497,11.5730 L 18.7818,11.5792 L 18.7994,11.5800 L 18.8169,11.5792 L 18.8488,11.5730 L 18.8767,11.5607 L 18.9004,11.5421 L 18.9108,11.5305 L 18.9200,11.5175 L 18.9347,11.4876 L 18.9445,11.4525 L 18.9494,11.4121 L 18.9500,11.3899 Z" fill="rgb(128,128,128)" fill-rule="evenodd" stroke="none"/>
<path d="M 0.1500,0.0000 L 2.5000,0.0000 L 2.5293,0.0029 L 2.5574,0.0114 L 2.5833,0.0253 L 2.6061,0.0439 L 2.6247,0.0667 L 2.6386,0.0926 L 2.6471,0.1207 L 2.6500,0.1500 L 2.6500,2.5000 L 2.6471,2.5293 L 2.6386,2.5574 L 2.6247,2.5833 L 2.6061,2.6061 L 2.5833,2.6247 L 2.5574,2.6386 L 2.5293,2.6471 L 2.5000,2.6500 L 0.1500,2.6500 L 0.1207,2.6471 L 0.0926,2.6386 L 0.0667,2.6247 L 0.0439,2.6061 L 0.0253,2.5833 L 0.0114,2.5574 L 0.0029,2.5293 L 0.0000,2.5000 L 0.0000,0.1500 L 0.0029,0.1207 L 0.0114,0.0926 L 0.0253,0.0667 L 0.0439,0.0439 L 0.0667,0.0253 L 0.0926,0.0114 L 0.1207,0.0029 Z M 2.9000,0.0000 L 5.2500,0.0000 L 5.2793,0.0029 L 5.3074,0.0114 L 5.3333,0.0253 L 5.3561,0.0439 L 5.3747,0.0667 L 5.3886,0.0926 L 5.3971,0.1207 L 5.4000,0.1500 L 5.4000,2.5000 L 5.3971,2.5293 L 5.3886,2.5574 L 5.3747,2.5833 L 5.3561,2.6061 L 5.3333,2.6247 L 5.3074,2.6386 L 5.2793,2.6471 L 5.2500,2.6500 L 2.9000,2.6500 L 2.8707,2.6471 L 2.8426,2.6386 L 2.8167,2.6247 L 2.7939,2.6061 L 2.7753,2.5833 L 2.7614,2.5574 L 2.7529,2.5293 L 2.7500,2.5000 L 2.7500,0.1500 L 2.7529,0.1207 L 2.7614,0.0926 L 2.7753,0.0667 L 2.7939,0.0439 L 2.8167,0.0253 L 2.8426,0.0114 L 2.8707,0.0029 Z M 5.6500,0.0000 L 8.0000,0.0000 L 8.0293,0.0029 L 8.0574,0.0114 L 8.0833,0.0253 L 8.1061,0.0439 L 8.1247,0.0667 L 8.1386,0.0926 L 8.1471,0.1207 L 8.1500,0.1500 L 8.1500,2.5000 L 8.1471,2.5293 L 8.1386,2.5574 L 8.1247,2.5833 L 8.1061,2.6061 L 8.0833,2.6247 L 8.0574,2.6386 L 8.0293,2.6471 L 8.0000,2.6500 L 5.6500,2.6500 L 5.6207,2.6471 L 5.5926,2.6386 L 5.5667,2.6247 L 5.5439,2.6061 L 5.5253,2.5833 L 5.5114,2.5574 L 5.5029,2.5293 L 5.5000,2.5000 L 5.5000,0.1500 L 5.5029,0.1207 L 5.5114,0.0926 L 5.5253,0.0667 L 5.5439,0.0439 L 5.5667,0.0253 L 5.5926,0.0114 L 5.6207,0.0029 Z M 8.4000,0.0000 L 10.7500,0.0000 L 10.7793,0.0029 L 10.8074,0.0114 L 10.8333,0.0253 L 10.8561,0.0439 L 10.8747,0.0667 L 10.8886,0.0926 L 10.8971,0.1207 L 10.9000,0.1500 L 10.9000,2.5000 L 10.8971,2.5293 L 10.8886,2.5574 L 10.8747,2.5833 L 10.8561,2.6061 L 10.8333,2.6247 L 10.8074,2.6386 L 10.7793,2.6471 L 10.7500,2.6500 L 8.4000,2.6500 L 8.3707,2.6471 L 8.3426,2.6386 L 8.3167,2.6247 L 8.2939,2.6061 L 8.2753,2.5833 L 8.2614,2.5574 L 8.2529,2.5293 L 8.2500,2.5000 L 8.2500,0.1500 L 8.2529,0.1207 L 8.2614,0.0926 L 8.2753,0.0667 L 8.2939,0.0439 L 8.3167,0.0253 L 8.3426,0.0114 L 8.3707,0.0029 Z M 11.1500,0.0000 L 13.5000,0.0000 L 13.5293,0.0029 L 13.5574,0.0114 L 13.5833,0.0253 L 13.6061,0.0439 L 13.6247,0.0667 L 13.6386,0.0926 L 13.6471,0.1207 L 13.6500,0.1500 L 13.6500,2.5000 L 13.6471,2.5293 L 13.6386,2.5574 L 13.6247,2.5833 L 13.6061,2.6061 L 13.5833,2.6247 L 13.5574,2.6386 L 13.5293,2.6471 L 13.5000,2.6500 L 11.1500,2.6500 L 11.1207,2.6471 L 11.0926,2.6386 L 11.0667,2.6247 L 11.0439,2.6061 L 11.0253,2.5833 L 11.0114,2.5574 L 11.0029,2.5293 L 11.0000,2.5000 L 11.0000,0.1500 L 11.0029,0.1207 L 11.0114,0.0926 L 11.0253,0.0667 L 11.0439,0.0439 L 11.0667,0.0253 L 11.0926,0.0114 L 11.1207,0.0029 Z M 13.9000,0.0000 L 16.2500,0.0000 L 16.2793,0.0029 L 16.3074,0.0114 L 16.3333,0.0253 L 16.3561,0.0439 L 16.3747,0.0667 L 16.3886,0.0926 L 16.3971,0.1207 L 16.4000,0.1500 L 16.4000,2.5000 L 16.3971,2.5293 L 16.3886,2.5574 L 16.3747,2.5833 L 16.3561,2.6061 L 16.3333,2.6247 L 16.3074,2.6386 L 16.2793,2.6471 L 16.2500,2.6500 L 13.9000,2.6500 L 13.8707,2.6471 L 13.8426,2.6386 L 13.8167,2.6247 L 13.7939,2.6061 L 13.7753,2.5833 L 13.7614,2.5574 L 13.7529,2.5293 L 13.7500,2.5000 L 13.7500,0.1500 L 13.7529,0.1207 L 13.7614,0.0926 L 13.7753,0.0667 L 13.7939,0.0439 L 13.8167,0.0253 L 13.8426,0.0114 L 13.8707,0.0029 Z M 16.6500,0.0000 L 19.0000,0.0000 L 19.0293,0.0029 L 19.0574,0.0114 L 19.0833,0.0253 L 19.1061,0.0439 L 19.1247,0.0667 L 19.1386,0.0926 L 19.1471,0.1207 L 19.1500,0.1500 L 19.1500,2.5000 L 19.1471,2.5293 L 19.1386,2.5574 L 19.1247,2.5833 L 19.1061,2.6061 L 19.0833,2.6247 L 19.0574,2.6386 L 19.0293,2.6471 L 19.0000,2.6500 L 16.6500,2.6500 L 16.6207,2.6471 L 16.5926,2.6386 L 16.5667,2.6247 L 16.5439,2.6061 L 16.5253,2.5833 L 16.5114,2.5574 L 16.5029,2.5293 L 16.5000,2.5000 L 16.5000,0.1500 L 16.5029,0.1207 L 16.5114,0.0926 L 16.5253,0.0667 L 16.5439,0.0439 L 16.5667,0.0253 L 16.5926,0.0114 L 16.6207,0.0029 Z M 19.4000,0.0000 L 21.7500,0.0000 L 21.7793,0.0029 L 21.8074,0.0114 L 21.8333,0.0253 L 21.8561,0.0439 L 21.8747,0.0667 L 21.8886,0.0926 L 21.8971,0.1207 L 21.9000,0.1500 L 21.9000,2.5000 L 21.8971,2.5293 L 21.8886,2.5574 L 21.8747,2.5833 L 21.8561,2.6061 L 21.8333,2.6247 L 21.8074,2.6386 L 21.7793,2.6471 L 21.7500,2.6500 L 19.4000,2.6500 L 19.3707,2.6471 L 19.3426,2.6386 L 19.3167,2.6247 L 19.2939,2.6061 L 19.2753,2.5833 L 19.2614,2.5574 L 19.2529,2.5293 L 19.2500,2.5000 L 19.2500,0.1500 L 19.2529,0.1207 L 19.2614,0.0926 L 19.2753,0.0667 L 19.2939,0.0439 L 19.3167,0.0253 L 19.3426,0.0114 L 19.3707,0.0029 Z M 22.1500,0.0000 L 24.5000,0.0000 L 24.5293,0.0029 L 24.5574,0.0114 L 24.5833,0.0253 L 24.6061,0.0439 L 24.6247,0.0667 L 24.6386,0.0926 L 24.6471,0.1207 L 24.6500,0.1500 L 24.6500,2.5000 L 24.6471,2.5293 L 24.6386,2.5574 L 24.6247,2.5833 L 24.6061,2.6061 L 24.5833,2.6247 L 24.5574,2.6386 L 24.5293,2.6471 L 24.5000,2.6500 L 22.1500,2.6500 L 22.1207,2.6471 L 22.0926,2.6386 L 22.0667,2.6247 L 22.0439,2.6061 L 22.0253,2.5833 L 22.0114,2.5574 L 22.0029,2.5293 L 22.0000,2.5000 L 22.0000,0.1500 L 22.0029,0.1207 L 22.0114,0.0926 L 22.0253,0.0667 L 22.0439,0.0439 L 22.0667,0.0253 L 22.0926,0.0114 L 22.1207,0.0029 Z M 0.1500,2.7500 L 2.5000,2.7500 L 2.5293,2.7529 L 2.5574,2.7614 L 2.5833,2.7753 L 2.6061,2.7939 L 2.6247,2.8167 L 2.6386,2.8426 L 2.6471,2.8707 L 2.6500,2.9000 L 2.6500,5.2500 L 2.6471,5.2793 L 2.6386,5.3074 L 2.6247,5.3333 L 2.6061,5.3561 L 2.5833,5.3747 L 2.5574,5.3886 L 2.5293,5.3971 L 2.5000,5.4000 L 0.1500,5.4000 L 0.1207,5.3971 L 0.0926,5.3886 L 0.0667,5.3747 L 0.0439,5.3561 L 0.0253,5.3333 L 0.0114,5.3074 L 0.0029,5.2793 L 0.0000,5.2500 L 0.0000,2.9000 L 0.0029,2.8707 L 0.0114,2.8426 L 0.0253,2.8167 L 0.0439,2.7939 L 0.0667,2.7753 L 0.0926,2.7614 L 0.1207,2.7529 Z M 2.9000,2.7500 L 5.2500,2.7500 L 5.2793,2.7529 L 5.3074,2.7614 L 5.3333,2.7753 L 5.3561,2.7939 L 5.3747,2.8167 L 5.3886,2.8426 L 5.3971,2.8707 L 5.4000,2.9000 L 5.4000,5.2500 L 5.3971,5.2793 L 5.3886,5.3074 L 5.3747,5.3333 L 5.3561,5.3561 L 5.3333,5.3747 L 5.3074,5.3886 L 5.2793,5.3971 L 5.2500,5.4000 L 2.9000,5.4000 L 2.8707,5.3971 L 2.8426,5.3886 L 2.8167,5.3747 L 2.7939,5.3561 L 2.7753,5.3333 L 2.7614,5.3074 L 2.7529,5.2793 L 2.7500,5.2500 L 2.7500,2.9000 L 2.7529,2.8707 L 2.7614,2.8426 L 2.7753,2.8167 L 2.7939,2.7939 L 2.8167,2.7753 L 2.8426,2.7614 L 2.8707,2.7529 Z M 5.6500,2.7500 L 8.0000,2.7500 L 8.0293,2.7529 L 8.0574,2.7614 L 8.0833,2.7753 L 8.1061,2.7939 L 8.1247,2.8167 L 8.1386,2.8426 L 8.1471,2.8707 L 8.1500,2.9000 L 8.1500,5.2500 L 8.1471,5.2793 L 8.1386,5.3074 L 8.1247,5.3333 L 8.1061,5.3561 L 8.0833,5.3747 L 8.0574,5.3886 L 8.0293,5.3971 L 8.0000,5.4000 L 5.6500,5.4000 L 5.6207,5.3971 L 5.5926,5.3886 L 5.5667,5.3747 L 5.5439,5.3561 L 5.5253,5.3333 L 5.5114,5.3074 L 5.5029,5.2793 L 5.5000,5.2500 L 5.5000,2.9000 L 5.5029,2.8707 L 5.5114,2.8426 L 5.5253,2.8167 L 5.5439,2.7939 L 5.5667,2.7753 L 5.5926,2.7614 L 5.6207,2.7529 Z M 8.4000,2.7500 L 10.7500,2.7500 L 10.7793,2.7529 L 10.8074,2.7614 L 10.8333,2.7753 L 10.8561,2.7939 L 10.8747,2.8167 L 10.8886,2.8426 L 10.8971,2.8707 L 10.9000,2.9000 L 10.9000,5.2500 L 10.8971,5.2793 L 10.8886,5.3074 L 10.8747,5.3333 L 10.8561,5.3561 L 10.8333,5.3747 L 10.8074,5.3886 L 10.7793,5.3971 L 10.7500,5.4000 L 8.4000,5.4000 L 8.3707,5.3971 L 8.3426,5.3886 L 8.3167,5.3747 L 8.2939,5.3561 L 8.2753,5.3333 L 8.2614,5.3074 L 8.2529,5.2793 L 8.2500,5.2500 L 8.2500,2.9000 L 8.2529,2.8707 L 8.2614,2.8426 L 8.2753,2.8167 L 8.2939,2.7939 L 8.3167,2.7753 L 8.3426,2.7614 L 8.3707,2.7529 Z M 11.1500,2.7500 L 13.5000,2.7500 L 13.5293,2.7529 L 13.5574,2.7614 L 13.5833,2.7753 L 13.6061,2.7939 L 13.6247,2.8167 L 13.6386,2.8426 L 13.6471,2.8707 L 13.6500,2.9000 L 13.6500,5.2500 L 13.6471,5.2793 L 13.6386,5.3074 L 13.6247,5.3333 L 13.6061,5.3561 L 13.5833,5.3747 L 13.5574,5.3886 L 13.5293,5.3971 L 13.5000,5.4000 L 11.1500,5.4000 L 11.1207,5.3971 L 11.0926,5.3886 L 11.0667,5.3747 L 11.0439,5.3561 L 11.0253,5.3333 L 11.0114,5.3074 L 11.0029,5.2793 L 11.0000,5.2500 L 11.0000,2.9000 L 11.0029,2.8707 L 11.0114,2.8426 L 11.0253,2.8167 L 11.0439,2.7939 L 11.0667,2.7753 L 11.0926,2.7614 L 11.1207,2.7529 Z M 13.9000,2.7500 L 16.2500,2.7500 L 16.2793,2.7529 L 16.3074,2.7614 L 16.3333,2.7753 L 16.3561,2.7939 L 16.3747,2.8167 L 16.3886,2.8426 L 16.3971,2.8707 L 16.4000,2.9000 L 16.4000,5.2500 L 16.3971,5.2793 L 16.3886,5.3074 L 16.3747,5.3333 L 16.3561,5.3561 L 16.3333,5.3747 L 16.3074,5.3886 L 16.2793,5.3971 L 16.2500,5.4000 L 13.9000,5.4000 L 13.8707,5.3971 L 13.8426,5.3886 L 13.8167,5.3747 L 13.7939,5.3561 L 13.7753,5.3333 L 13.7614,5.3074 L 13.7529,5.2793 L 13.7500,5.2500 L 13.7500,2.9000 L 13.7529,2.8707 L 13.7614,2.8426 L 13.7753,2.8167 L 13.7939,2.7939 L 13.8167,2.7753 L 13.8426,2.7614 L 13.8707,2.7529 Z M 16.6500,2.7500 L 19.0000,2.7500 L 19.0293,2.7529 L 19.0574,2.7614 L 19.0833,2.7753 L 19.1061,2.7939 L 19.1247,2.8167 L 19.1386,2.8426 L 19.1471,2.8707 L 19.1500,2.9000 L 19.1500,5.2500 L 19.1471,5.2793 L 19.1386,5.3074 L 19.1247,5.3333 L 19.1061,5.3561 L 19.0833,5.3747 L 19.0574,5.3886 L 19.0293,5.3971 L 19.0000,5.4000 L 16.6500,5.4000 L 16.6207,5.3971 L 16.5926,5.3886 L 16.5667,5.3747 L 16.5439,5.3561 L 16.5253,5.3333 L 16.5114,5.3074 L 16.5029,5.2793 L 16.5000,5.2500 L 16.5000,2.9000 L 16.5029,2.8707 L 16.5114,2.8426 L 16.5253,2.8167 L 16.5439,2.7939 L 16.5667,2.7753 L 16.5926,2.7614 L 16.6207,2.7529 Z M 19.4000,2.7500 L 21.7500,2.7500 L 21.7793,2.7529 L 21.8074,2.7614 L 21.8333,2.7753 L 21.8561,2.7939 L 21.8747,2.8167 L 21.8886,2.8426 L 21.8971,2.8707 L 21.9000,2.9000 L 21.9000,5.2500 L 21.8971,5.2793 L 21.8886,5.3074 L 21.8747,5.3333 L 21.8561,5.3561 L 21.8333,5.3747 L 21.8074,5.3886 L 21.7793,5.3971 L 21.7500,5.4000 L 19.4000,5.4000 L 19.3707,5.3971 L 19.3426,5.3886 L 19.3167,5.3747 L 19.2939,5.3561 L 19.2753,5.3333 L 19.2614,5.3074 L 19.2529,5.2793 L 19.2500,5.2500 L 19.2500,2.9000 L 19.2529,2.8707 L 19.2614,2.8426 L 19.2753,2.8167 L 19.2939,2.7939 L 19.3167,2.7753 L 19.3426,2.7614 L 19.3707,2.7529 Z M 22.1500,2.7500 L 24.5000,2.7500 L 24.5293,2.7529 L 24.5574,2.7614 L 24.5833,2.7753 L 24.6061,2.7939 L 24.6247,2.8167 L 24.6386,2.8426 L 24.6471,2.8707 L 24.6500,2.9000 L 24.6500,5.2500 L 24.6471,5.2793 L 24.6386,5.3074 L 24.6247,5.3333 L 24.6061,5.3561 L 24.5833,5.3747 L 24.5574,5.3886 L 24.5293,5.3971 L 24.5000,5.4000 L 22.1500,5.4000 L 22.1207,5.3971 L 22.0926,5.3886 L 22.0667,5.3747 L 22.0439,5.3561 L 22.0253,5.3333 L 22.0114,5.3074 L 22.0029,5.2793 L 22.0000,5.2500 L 22.0000,2.9000 L 22.0029,2.8707 L 22.0114,2.8426 L 22.0253,2.8167 L 22.0439,2.7939 L 22.0667,2.7753 L 22.0926,2.7614 L 22.1207,2.7529 Z M 0.1500,5.5000 L 2.5000,5.5000 L 2.5293,5.5029 L 2.5574,5.5114 L 2.5833,5.5253 L 2.6061,5.5439 L 2.6247,5.5667 L 2.6386,5.5926 L 2.6471,5.6207 L 2.6500,5.6500 L 2.6500,8.0000 L 2.6471,8.0293 L 2.6386,8.0574 L 2.6247,8.0833 L 2.6061,8.1061 L 2.5833,8.1247 L 2.5574,8.1386 L 2.5293,8.1471 L 2.5000,8.1500 L 0.1500,8.1500 L 0.1207,8.1471 L 0.0926,8.1386 L 0.0667,8.1247 L 0.0439,8.1061 L 0.0253,8.0833 L 0.0114,8.0574 L 0.0029,8.0293 L 0.0000,8.0000 L 0.0000,5.6500 L 0.0029,5.6207 L 0.0114,5.5926 L 0.0253,5.5667 L 0.0439,5.5439 L 0.0667,5.5253 L 0.0926,5.5114 L 0.1207,5.5029 Z M 2.9000,5.5000 L 5.2500,5.5000 L 5.2793,5.5029 L 5.3074,5.5114 L 5.3333,5.5253 L 5.3561,5.5439 L 5.3747,5.5667 L 5.3886,5.5926 L 5.3971,5.6207 L 5.4000,5.6500 L 5.4000,8.0000 L 5.3971,8.0293 L 5.3886,8.0574 L 5.3747,8.0833 L 5.3561,8.1061 L 5.3333,8.1247 L 5.3074,8.1386 L 5.2793,8.1471 L 5.2500,8.1500 L 2.9000,8.1500 L 2.8707,8.1471 L 2.8426,8.1386 L 2.8167,8.1247 L 2.7939,8.1061 L 2.7753,8.0833 L 2.7614,8.0574 L 2.7529,8.0293 L 2.7500,8.0000 L 2.7500,5.6500 L 2.7529,5.6207 L 2.7614,5.5926 L 2.7753,5.5667 L 2.7939,5.5439 L 2.8167,5.5253 L 2.8426,5.5114 L 2.8707,5.5029 Z M 5.6500,5.5000 L 8.0000,5.5000 L 8.0293,5.5029 L 8.0574,5.5114 L 8.0833,5.5253 L 8.1061,5.5439 L 8.1247,5.5667 L 8.1386,5.5926 L 8.1471,5.6207 L 8.1500,5.6500 L 8.1500,8.0000 L 8.1471,8.0293 L 8.1386,8.0574 L 8.1247,8.0833 L 8.1061,8.1061 L 8.0833,8.1247 L 8.0574,8.1386 L 8.0293,8.1471 L 8.0000,8.1500 L 5.6500,8.1500 L 5.6207,8.1471 L 5.5926,8.1386 L 5.5667,8.1247 L 5.5439,8.1061 L 5.5253,8.0833 L 5.5114,8.0574 L 5.5029,8.0293 L 5.5000,8.0000 L 5.5000,5.6500 L 5.5029,5.6207 L 5.5114,5.5926 L 5.5253,5.5667 L 5.5439,5.5439 L 5.5667,5.5253 L 5.5926,5.5114 L 5.6207,5.5029 Z M 8.4000,5.5000 L 10.7500,5.5000 L 10.7793,5.5029 L 10.8074,5.5114 L 10.8333,5.5253 L 10.8561,5.5439 L 10.8747,5.5667 L 10.8886,5.5926 L 10.8971,5.6207 L 10.9000,5.6500 L 10.9000,8.0000 L 10.8971,8.0293 L 10.8886,8.0574 L 10.8747,8.0833 L 10.8561,8.1061 L 10.8333,8.1247 L 10.8074,8.1386 L 10.7793,8.1471 L 10.7500,8.1500 L 8.4000,8.1500 L 8.3707,8.1471 L 8.3426,8.1386 L 8.3167,8.1247 L 8.2939,8.1061 L 8.2753,8.0833 L 8.2614,8.0574 L 8.2529,8.0293 L 8.2500,8.0000 L 8.2500,5.6500 L 8.2529,5.6207 L 8.2614,5.5926 L 8.2753,5.5667 L 8.2939,5.5439 L 8.3167,5.5253 L 8.3426,5.5114 L 8.3707,5.5029 Z M 11.1500,5.5000 L 13.5000,5.5000 L 13.5293,5.5029 L 13.5574,5.5114 L 13.5833,5.5253 L 13.6061,5.5439 L 13.6247,5.5667 L 13.6386,5.5926 L 13.6471,5.6207 L 13.6500,5.6500 L 13.6500,8.0000 L 13.6471,8.0293 L 13.6386,8.0574 L 13.6247,8.0833 L 13.6061,8.1061 L 13.5833,8.1247 L 13.5574,8.1386 L 13.5293,8.1471 L 13.5000,8.1500 L 11.1500,8.1500 L 11.1207,8.1471 L 11.0926,8.1386 L 11.0667,8.1247 L 11.0439,8.1061 L 11.0253,8.0833 L 11.0114,8.0574 L 11.0029,8.0293 L 11.0000,8.0000 L 11.0000,5.6500 L 11.0029,5.6207 L 11.0114,5.5926 L 11.0253,5.5667 L 11.0439,5.5439 L 11.0667,5.5253 L 11.0926,5.5114 L 11.1207,5.5029 Z M 13.9000,5.5000 L 16.2500,5.5000 L 16.2793,5.5029 L 16.3074,5.5114 L 16.3333,5.5253 L 16.3561,5.5439 L 16.3747,5.5667 L 16.3886,5.5926 L 16.3971,5.6207 L 16.4000,5.6500 L 16.4000,8.0000 L 16.3971,8.0293 L 16.3886,8.0574 L 16.3747,8.0833 L 16.3561,8.1061 L 16.3333,8.1247 L 16.3074,8.1386 L 16.2793,8.1471 L 16.2500,8.1500 L 13.9000,8.1500 L 13.8707,8.1471 L 13.8426,8.1386 L 13.8167,8.1247 L 13.7939,8.1061 L 13.7753,8.0833 L 13.7614,8.0574 L 13.7529,8.0293 L 13.7500,8.0000 L 13.7500,5.6500 L 13.7529,5.6207 L 13.7614,5.5926 L 13.7753,5.5667 L 13.7939,5.5439 L 13.8167,5.5253 L 13.8426,5.5114 L 13.8707,5.5029 Z M 16.6500,5.5000 L 19.0000,5.5000 L 19.0293,5.5029 L 19.0574,5.5114 L 19.0833,5.5253 L 19.1061,5.5439 L 19.1247,5.5667 L 19.1386,5.5926 L 19.1471,5.6207 L 19.1500,5.6500 L 19.1500,8.0000 L 19.1471,8.0293 L 19.1386,8.0574 L 19.1247,8.0833 L 19.1061,8.1061 L 19.0833,8.1247 L 19.0574,8.1386 L 19.0293,8.1471 L 19.0000,8.1500 L 16.6500,8.1500 L 16.6207,8.1471 L 16.5926,8.1386 L 16.5667,8.1247 L 16.5439,8.1061 L 16.5253,8.0833 L 16.5114,8.0574 L 16.5029,8.0293 L 16.5000,8.0000 L 16.5000,5.6500 L 16.5029,5.6207 L 16.5114,5.5926 L 16.5253,5.5667 L 16.5439,5.5439 L 16.5667,5.5253 L 16.5926,5.5114 L 16.6207,5.5029 Z M 19.4000,5.5000 L 21.7500,5.5000 L 21.7793,5.5029 L 21.8074,5.5114 L 21.8333,5.5253 L 21.8561,5.5439 L 21.8747,5.5667 L 21.8886,5.5926 L 21.8971,5.6207 L 21.9000,5.6500 L 21.9000,8.0000 L 21.8971,8.0293 L 21.8886,8.0574 L 21.8747,8.0833 L 21.8561,8.1061 L 21.8333,8.1247 L 21.8074,8.1386 L 21.7793,8.1471 L 21.7500,8.1500 L 19.4000,8.1500 L 19.3707,8.1471 L 19.3426,8.1386 L 19.3167,8.1247 L 19.2939,8.1061 L 19.2753,8.0833 L 19.2614,8.0574 L 19.2529,8.0293 L 19.2500,8.0000 L 19.2500,5.6500 L 19.2529,5.6207 L 19.2614,5.5926 L 19.2753,5.5667 L 19.2939,5.5439 L 19.3167,5.5253 L 19.3426,5.5114 L 19.3707,5.5029 Z M 22.1500,5.5000 L 24.5000,5.5000 L 24.5293,5.5029 L 24.5574,5.5114 L 24.5833,5.5253 L 24.6061,5.5439 L 24.6247,5.5667 L 24.6386,5.5926 L 24.6471,5.6207 L 24.6500,5.6500 L 24.6500,8.0000 L 24.6471,8.0293 L 24.6386,8.0574 L 24.6247,8.0833 L 24.6061,8.1061 L 24.5833,8.1247 L 24.5574,8.1386 L 24.5293,8.1471 L 24.5000,8.1500 L 22.1500,8.1500 L 22.1207,8.1471 L 22.0926,8.1386 L 22.0667,8.1247 L 22.0439,8.1061 L 22.0253,8.0833 L 22.0114,8.0574 L 22.0029,8.0293 L 22.0000,8.0000 L 22.0000,5.6500 L 22.0029,5.6207 L 22.0114,5.5926 L 22.0253,5.5667 L 22.0439,5.5439 L 22.0667,5.5253 L 22.0926,5.5114 L 22.1207,5.5029 Z M 0.1500,8.2500 L 2.5000,8.2500 L 2.5293,8.2529 L 2.5574,8.2614 L 2.5833,8.2753 L 2.6061,8.2939 L 2.6247,8.3167 L 2.6386,8.3426 L 2.6471,8.3707 L 2.6500,8.4000 L 2.6500,10.7500 L 2.6471,10.7793 L 2.6386,10.8074 L 2.6247,10.8333 L 2.6061,10.8561 L 2.5833,10.8747 L 2.5574,10.8886 L 2.5293,10.8971 L 2.5000,10.9000 L 0.1500,10.9000 L 0.1207,10.8971 L 0.0926,10.8886 L 0.0667,10.8747 L 0.0439,10.8561 L 0.0253,10.8333 L 0.0114,10.8074 L 0.0029,10.7793 L 0.0000,10.7500 L 0.0000,8.4000 L 0.0029,8.3707 L 0.0114,8.3426 L 0.0253,8.3167 L 0.0439,8.2939 L 0.0667,8.2753 L 0.0926,8.2614 L 0.1207,8.2529 Z M 2.9000,8.2500 L 5.2500,8.2500 L 5.2793,8.2529 L 5.3074,8.2614 L 5.3333,8.2753 L 5.3561,8.2939 L 5.3747,8.3167 L 5.3886,8.3426 L 5.3971,8.3707 L 5.4000,8.4000 L 5.4000,10.7500 L 5.3971,10.7793 L 5.3886,10.8074 L 5.3747,10.8333 L 5.3561,10.8561 L 5.3333,10.8747 L 5.3074,10.8886 L 5.2793,10.8971 L 5.2500,10.9000 L 2.9000,10.9000 L 2.8707,10.8971 L 2.8426,10.8886 L 2.8167,10.8747 L 2.7939,10.8561 L 2.7753,10.8333 L 2.7614,10.8074 L 2.7529,10.7793 L 2.7500,10.7500 L 2.7500,8.4000 L 2.7529,8.3707 L 2.7614,8.3426 L 2.7753,8.3167 L 2.7939,8.2939 L 2.8167,8.2753 L 2.8426,8.2614 L 2.8707,8.2529 Z M 5.6500,8.2500 L 8.0000,8.2500 L 8.0293,8.2529 L 8.0574,8.2614 L 8.0833,8.2753 L 8.1061,8.2939 L 8.1247,8.3167 L 8.1386,8.3426 L 8.1471,8.3707 L 8.1500,8.4000 L 8.1500,10.7500 L 8.1471,10.7793 L 8.1386,10.8074 L 8.1247,10.8333 L 8.1061,10.8561 L 8.0833,10.8747 L 8.0574,10.8886 L 8.0293,10.8971 L 8.0000,10.9000 L 5.6500,10.9000 L 5.6207,10.8971 L 5.5926,10.8886 L 5.5667,10.8747 L 5.5439,10.8561 L 5.5253,10.8333 L 5.5114,10.8074 L 5.5029,10.7793 L 5.5000,10.7500 L 5.5000,8.4000 L 5.5029,8.3707 L 5.5114,8.3426 L 5.5253,8.3167 L 5.5439,8.2939 L 5.5667,8.2753 L 5.5926,8.2614 L 5.6207,8.2529 Z M 8.4000,8.2500 L 10.7500,8.2500 L 10.7793,8.2529 L 10.8074,8.2614 L 10.8333,8.2753 L 10.8561,8.2939 L 10.8747,8.3167 L 10.8886,8.3426 L 10.8971,8.3707 L 10.9000,8.4000 L 10.9000,10.7500 L 10.8971,10.7793 L 10.8886,10.8074 L 10.8747,10.8333 L 10.8561,10.8561 L 10.8333,10.8747 L 10.8074,10.8886 L 10.7793,10.8971 L 10.7500,10.9000 L 8.4000,10.9000 L 8.3707,10.8971 L 8.3426,10.8886 L 8.3167,10.8747 L 8.2939,10.8561 L 8.2753,10.8333 L 8.2614,10.8074 L 8.2529,10.7793 L 8.2500,10.7500 L 8.2500,8.4000 L 8.2529,8.3707 L 8.2614,8.3426 L 8.2753,8.3167 L 8.2939,8.2939 L 8.3167,8.2753 L 8.3426,8.2614 L 8.3707,8.2529 Z M 11.1500,8.2500 L 13.5000,8.2500 L 13.5293,8.2529 L 13.5574,8.2614 L 13.5833,8.2753 L 13.6061,8.2939 L 13.6247,8.3167 L 13.6386,8.3426 L 13.6471,8.3707 L 13.6500,8.4000 L 13.6500,10.7500 L 13.6471,10.7793 L 13.6386,10.8074 L 13.6247,10.8333 L 13.6061,10.8561 L 13.5833,10.8747 L 13.5574,10.8886 L 13.5293,10.8971 L 13.5000,10.9000 L 11.1500,10.9000 L 11.1207,10.8971 L 11.0926,10.8886 L 11.0667,10.8747 L 11.0439,10.8561 L 11.0253,10.8333 L 11.0114,10.8074 L 11.0029,10.7793 L 11.0000,10.7500 L 11.0000,8.4000 L 11.0029,8.3707 L 11.0114,8.3426 L 11.0253,8.3167 L 11.0439,8.2939 L 11.0667,8.2753 L 11.0926,8.2614 L 11.1207,8.2529 Z M 13.9000,8.2500 L 16.2500,8.2500 L 16.2793,8.2529 L 16.3074,8.2614 L 16.3333,8.2753 L 16.3561,8.2939 L 16.3747,8.3167 L 16.3886,8.3426 L 16.3971,8.3707 L 16.4000,8.4000 L 16.4000,10.7500 L 16.3971,10.7793 L 16.3886,10.8074 L 16.3747,10.8333 L 16.3561,10.8561 L 16.3333,10.8747 L 16.3074,10.8886 L 16.2793,10.8971 L 16.2500,10.9000 L 13.9000,10.9000 L 13.8707,10.8971 L 13.8426,10.8886 L 13.8167,10.8747 L 13.7939,10.8561 L 13.7753,10.8333 L 13.7614,10.8074 L 13.7529,10.7793 L 13.7500,10.7500 L 13.7500,8.4000 L 13.7529,8.3707 L 13.7614,8.3426 L 13.7753,8.3167 L 13.7939,8.2939 L 13.8167,8.2753 L 13.8426,8.2614 L 13.8707,8.2529 Z M 16.6500,8.2500 L 19.0000,8.2500 L 19.0293,8.2529 L 19.0574,8.2614 L 19.0833,8.2753 L 19.1061,8.2939 L 19.1247,8.3167 L 19.1386,8.3426 L 19.1471,8.3707 L 19.1500,8.4000 L 19.1500,10.7500 L 19.1471,10.7793 L 19.1386,10.8074 L 19.1247,10.8333 L 19.1061,10.8561 L 19.0833,10.8747 L 19.0574,10.8886 L 19.0293,10.8971 L 19.0000,10.9000 L 16.6500,10.9000 L 16.6207,10.8971 L 16.5926,10.8886 L 16.5667,10.8747 L 16.5439,10.8561 L 16.5253,10.8333 L 16.5114,10.8074 L 16.5029,10.7793 L 16.5000,10.7500 L 16.5000,8.4000 L 16.5029,8.3707 L 16.5114,8.3426 L 16.5253,8.3167 L 16.5439,8.2939 L 16.5667,8.2753 L 16.5926,8.2614 L 16.6207,8.2529 Z M 19.4000,8.2500 L 21.7500,8.2500 L 21.7793,8.2529 L 21.8074,8.2614 L 21.8333,8.2753 L 21.8561,8.2939 L 21.8747,8.3167 L 21.8886,8.3426 L 21.8971,8.3707 L 21.9000,8.4000 L 21.9000,10.7500 L 21.8971,10.7793 L 21.8886,10.8074 L 21.8747,10.8333 L 21.8561,10.8561 L 21.8333,10.8747 L 21.8074,10.8886 L 21.7793,10.8971 L 21.7500,10.9000 L 19.4000,10.9000 L 19.3707,10.8971 L 19.3426,10.8886 L 19.3167,10.8747 L 19.2939,10.8561 L 19.2753,10.8333 L 19.2614,10.8074 L 19.2529,10.7793 L 19.2500,10.7500 L 19.2500,8.4000 L 19.2529,8.3707 L 19.2614,8.3426 L 19.2753,8.3167 L 19.2939,8.2939 L 19.3167,8.2753 L 19.3426,8.2614 L 19.3707,8.2529 Z M 22.1500,8.2500 L 24.5000,8.2500 L 24.5293,8.2529 L 24.5574,8.2614 L 24.5833,8.2753 L 24.6061,8.2939 L 24.6247,8.3167 L 24.6386,8.3426 L 24.6471,8.3707 L 24.6500,8.4000 L 24.6500,10.7500 L 24.6471,10.7793 L 24.6386,10.8074 L 24.6247,10.8333 L 24.6061,10.8561 L 24.5833,10.8747 L 24.5574,10.8886 L 24.5293,10.8971 L 24.5000,10.9000 L 22.1500,10.9000 L 22.1207,10.8971 L 22.0926,10.8886 L 22.0667,10.8747 L 22.0439,10.8561 L 22.0253,10.8333 L 22.0114,10.8074 L 22.0029,10.7793 L 22.0000,10.7500 L 22.0000,8.4000 L 22.0029,8.3707 L 22.0114,8.3426 L 22.0253,8.3167 L 22.0439,8.2939 L 22.0667,8.2753 L 22.0926,8.2614 L 22.1207,8.2529 Z M 0.1500,11.0000 L 2.5000,11.0000 L 2.5293,11.0029 L 2.5574,11.0114 L 2.5833,11.0253 L 2.6061,11.0439 L 2.6247,11.0667 L 2.6386,11.0926 L 2.6471,11.1207 L 2.6500,11.1500 L 2.6500,13.5000 L 2.6471,13.5293 L 2.6386,13.5574 L 2.6247,13.5833 L 2.6061,13.6061 L 2.5833,13.6247 L 2.5574,13.6386 L 2.5293,13.6471 L 2.5000,13.6500 L 0.1500,13.6500 L 0.1207,13.6471 L 0.0926,13.6386 L 0.0667,13.6247 L 0.0439,13.6061 L 0.0253,13.5833 L 0.0114,13.5574 L 0.0029,13.5293 L 0.0000,13.5000 L 0.0000,11.1500 L 0.0029,11.1207 L 0.0114,11.0926 L 0.0253,11.0667 L 0.0439,11.0439 L 0.0667,11.0253 L 0.0926,11.0114 L 0.1207,11.0029 Z M 2.9000,11.0000 L 5.2500,11.0000 L 5.2793,11.0029 L 5.3074,11.0114 L 5.3333,11.0253 L 5.3561,11.0439 L 5.3747,11.0667 L 5.3886,11.0926 L 5.3971,11.1207 L 5.4000,11.1500 L 5.4000,13.5000 L 5.3971,13.5293 L 5.3886,13.5574 L 5.3747,13.5833 L 5.3561,13.6061 L 5.3333,13.6247 L 5.3074,13.6386 L 5.2793,13.6471 L 5.2500,13.6500 L 2.9000,13.6500 L 2.8707,13.6471 L 2.8426,13.6386 L 2.8167,13.6247 L 2.7939,13.6061 L 2.7753,13.5833 L 2.7614,13.5574 L 2.7529,13.5293 L 2.7500,13.5000 L 2.7500,11.1500 L 2.7529,11.1207 L 2.7614,11.0926 L 2.7753,11.0667 L 2.7939,11.0439 L 2.8167,11.0253 L 2.8426,11.0114 L 2.8707,11.0029 Z M 5.6500,11.0000 L 8.0000,11.0000 L 8.0293,11.0029 L 8.0574,11.0114 L 8.0833,11.0253 L 8.1061,11.0439 L 8.1247,11.0667 L 8.1386,11.0926 L 8.1471,11.1207 L 8.1500,11.1500 L 8.1500,13.5000 L 8.1471,13.5293 L 8.1386,13.5574 L 8.1247,13.5833 L 8.1061,13.6061 L 8.0833,13.6247 L 8.0574,13.6386 L 8.0293,13.6471 L 8.0000,13.6500 L 5.6500,13.6500 L 5.6207,13.6471 L 5.5926,13.6386 L 5.5667,13.6247 L 5.5439,13.6061 L 5.5253,13.5833 L 5.5114,13.5574 L 5.5029,13.5293 L 5.5000,13.5000 L 5.5000,11.1500 L 5.5029,11.1207 L 5.5114,11.0926 L 5.5253,11.0667 L 5.5439,11.0439 L 5.5667,11.0253 L 5.5926,11.0114 L 5.6207,11.0029 Z M 8.4000,11.0000 L 10.7500,11.0000 L 10.7793,11.0029 L 10.8074,11.0114 L 10.8333,11.0253 L 10.8561,11.0439 L 10.8747,11.0667 L 10.8886,11.0926 L 10.8971,11.1207 L 10.9000,11.1500 L 10.9000,13.5000 L 10.8971,13.5293 L 10.8886,13.5574 L 10.8747,13.5833 L 10.8561,13.6061 L 10.8333,13.6247 L 10.8074,13.6386 L 10.7793,13.6471 L 10.7500,13.6500 L 8.4000,13.6500 L 8.3707,13.6471 L 8.3426,13.6386 L 8.3167,13.6247 L 8.2939,13.6061 L 8.2753,13.5833 L 8.2614,13.5574 L 8.2529,13.5293 L 8.2500,13.5000 L 8.2500,11.1500 L 8.2529,11.1207 L 8.2614,11.0926 L 8.2753,11.0667 L 8.2939,11.0439 L 8.3167,11.0253 L 8.3426,11.0114 L 8.3707,11.0029 Z M 11.1500,11.0000 L 13.5000,11.0000 L 13.5293,11.0029 L 13.5574,11.0114 L 13.5833,11.0253 L 13.6061,11.0439 L 13.6247,11.0667 L 13.6386,11.0926 L 13.6471,11.1207 L 13.6500,11.1500 L 13.6500,13.5000 L 13.6471,13.5293 L 13.6386,13.5574 L 13.6247,13.5833 L 13.6061,13.6061 L 13.5833,13.6247 L 13.5574,13.6386 L 13.5293,13.6471 L 13.5000,13.6500 L 11.1500,13.6500 L 11.1207,13.6471 L 11.0926,13.6386 L 11.0667,13.6247 L 11.0439,13.6061 L 11.0253,13.5833 L 11.0114,13.5574 L 11.0029,13.5293 L 11.0000,13.5000 L 11.0000,11.1500 L 11.0029,11.1207 L 11.0114,11.0926 L 11.0253,11.0667 L 11.0439,11.0439 L 11.0667,11.0253 L 11.0926,11.0114 L 11.1207,11.0029 Z M 13.9000,11.0000 L 16.2500,11.0000 L 16.2793,11.0029 L 16.3074,11.0114 L 16.3333,11.0253 L 16.3561,11.0439 L 16.3747,11.0667 L 16.3886,11.0926 L 16.3971,11.1207 L 16.4000,11.1500 L 16.4000,13.5000 L 16.3971,13.5293 L 16.3886,13.5574 L 16.3747,13.5833 L 16.3561,13.6061 L 16.3333,13.6247 L 16.3074,13.6386 L 16.2793,13.6471 L 16.2500,13.6500 L 13.9000,13.6500 L 13.8707,13.6471 L 13.8426,13.6386 L 13.8167,13.6247 L 13.7939,13.6061 L 13.7753,13.5833 L 13.7614,13.5574 L 13.7529,13.5293 L 13.7500,13.5000 L 13.7500,11.1500 L 13.7529,11.1207 L 13.7614,11.0926 L 13.7753,11.0667 L 13.7939,11.0439 L 13.8167,11.0253 L 13.8426,11.0114 L 13.8707,11.0029 Z M 16.6500,11.0000 L 19.0000,11.0000 L 19.0293,11.0029 L 19.0574,11.0114 L 19.0833,11.0253 L 19.1061,11.0439 L 19.1247,11.0667 L 19.1386,11.0926 L 19.1471,11.1207 L 19.1500,11.1500 L 19.1500,13.5000 L 19.1471,13.5293 L 19.1386,13.5574 L 19.1247,13.5833 L 19.1061,13.6061 L 19.0833,13.6247 L 19.0574,13.6386 L 19.0293,13.6471 L 19.0000,13.6500 L 16.6500,13.6500 L 16.6207,13.6471 L 16.5926,13.6386 L 16.5667,13.6247 L 16.5439,13.6061 L 16.5253,13.5833 L 16.5114,13.5574 L 16.5029,13.5293 L 16.5000,13.5000 L 16.5000,11.1500 L 16.5029,11.1207 L 16.5114,11.0926 L 16.5253,11.0667 L 16.5439,11.0439 L 16.5667,11.0253 L 16.5926,11.0114 L 16.6207,11.0029 Z M 19.4000,11.0000 L 21.7500,11.0000 L 21.7793,11.0029 L 21.8074,11.0114 L 21.8333,11.0253 L 21.8561,11.0439 L 21.8747,11.0667 L 21.8886,11.0926 L 21.8971,11.1207 L 21.9000,11.1500 L 21.9000,13.5000 L 21.8971,13.5293 L 21.8886,13.5574 L 21.8747,13.5833 L 21.8561,13.6061 L 21.8333,13.6247 L 21.8074,13.6386 L 21.7793,13.6471 L 21.7500,13.6500 L 19.4000,13.6500 L 19.3707,13.6471 L 19.3426,13.6386 L 19.3167,13.6247 L 19.2939,13.6061 L 19.2753,13.5833 L 19.2614,13.5574 L 19.2529,13.5293 L 19.2500,13.5000 L 19.2500,11.1500 L 19.2529,11.1207 L 19.2614,11.0926 L 19.2753,11.0667 L 19.2939,11.0439 L 19.3167,11.0253 L 19.3426,11.0114 L 19.3707,11.0029 Z M 22.1500,11.0000 L 24.5000,11.0000 L 24.5293,11.0029 L 24.5574,11.0114 L 24.5833,11.0253 L 24.6061,11.0439 L 24.6247,11.0667 L 24.6386,11.0926 L 24.6471,11.1207 L 24.6500,11.1500 L 24.6500,13.5000 L 24.6471,13.5293 L 24.6386,13.5574 L 24.6247,13.5833 L 24.6061,13.6061 L 24.5833,13.6247 L 24.5574,13.6386 L 24.5293,13.6471 L 24.5000,13.6500 L 22.1500,13.6500 L 22.1207,13.6471 L 22.0926,13.6386 L 22.0667,13.6247 L 22.0439,13.6061 L 22.0253,13.5833 L 22.0114,13.5574 L 22.0029,13.5293 L 22.0000,13.5000 L 22.0000,11.1500 L 22.0029,11.1207 L 22.0114,11.0926 L 22.0253,11.0667 L 22.0439,11.0439 L 22.0667,11.0253 L 22.0926,11.0114 L 22.1207,11.0029 Z" fill="none" stroke="rgb(0,0,255)" stroke-width="0.01"/>
</g>
</svg>